<svg xmlns="http://www.w3.org/2000/svg" width="3840" height="2160" viewBox="0 0 3840 2160" version="1.1"><path d="M 491 714 C 491 714.551, 488.407 715, 485.220 715 C 477.070 715, 456.880 717.584, 441 720.659 C 433.575 722.097, 426.721 723.240, 425.770 723.200 C 424.818 723.160, 423.774 723.556, 423.451 724.080 C 423.127 724.604, 422.443 724.774, 421.931 724.457 C 421.419 724.141, 420.458 724.217, 419.795 724.627 C 419.133 725.036, 417.297 725.513, 415.716 725.686 C 411.568 726.140, 383.021 735.635, 373.556 739.709 C 369.125 741.617, 364.663 743.346, 363.641 743.552 C 356.220 745.049, 303.065 774.602, 299.015 779.482 C 298.322 780.317, 297.183 781, 296.485 781 C 295.786 781, 294.955 781.675, 294.638 782.500 C 294.322 783.325, 293.374 784, 292.531 784 C 291.689 784, 291 784.450, 291 785 C 291 785.550, 290.487 786, 289.860 786 C 289.233 786, 288.221 786.606, 287.610 787.347 C 287 788.088, 281.775 792.455, 276 797.051 C 252.241 815.959, 220.186 851.442, 202.322 878.609 C 190.274 896.931, 177.448 921.299, 169.889 940.229 C 161.739 960.642, 153.359 987.415, 151.495 999 C 151.186 1000.925, 150.065 1007.225, 149.006 1013 C 144.039 1040.064, 143.538 1046.214, 143.538 1080 C 143.538 1113.786, 144.039 1119.936, 149.006 1147 C 150.065 1152.775, 151.186 1159.075, 151.495 1161 C 153.359 1172.585, 161.739 1199.358, 169.889 1219.771 C 177.448 1238.701, 190.274 1263.069, 202.322 1281.391 C 220.186 1308.558, 252.241 1344.041, 276 1362.949 C 281.775 1367.545, 287 1371.912, 287.610 1372.653 C 288.221 1373.394, 289.233 1374, 289.860 1374 C 290.487 1374, 291 1374.450, 291 1375 C 291 1375.550, 291.689 1376, 292.531 1376 C 293.374 1376, 294.322 1376.675, 294.638 1377.500 C 294.955 1378.325, 295.786 1379, 296.485 1379 C 297.183 1379, 298.322 1379.683, 299.015 1380.518 C 303.065 1385.398, 356.220 1414.951, 363.641 1416.448 C 364.663 1416.654, 369.125 1418.383, 373.556 1420.291 C 383.021 1424.365, 411.568 1433.860, 415.716 1434.314 C 417.297 1434.487, 419.133 1434.964, 419.795 1435.373 C 420.458 1435.783, 421.419 1435.859, 421.931 1435.543 C 422.443 1435.226, 423.127 1435.396, 423.451 1435.920 C 423.774 1436.444, 424.818 1436.840, 425.770 1436.800 C 426.721 1436.760, 433.575 1437.903, 441 1439.341 C 456.880 1442.416, 477.070 1445, 485.220 1445 C 488.407 1445, 491 1445.449, 491 1446 C 491 1446.664, 569 1447, 723 1447 C 850.600 1447, 955 1446.618, 955 1446.151 C 955 1445.684, 959.612 1445.037, 965.250 1444.713 C 976.843 1444.049, 992.751 1441.848, 1007.500 1438.870 C 1013 1437.760, 1018.625 1436.711, 1020 1436.539 C 1021.375 1436.368, 1022.500 1436.146, 1022.500 1436.045 C 1022.500 1435.945, 1023.655 1435.708, 1025.068 1435.519 C 1030.425 1434.802, 1057.763 1426.433, 1064.500 1423.447 C 1070.449 1420.810, 1080.536 1416.851, 1082.216 1416.493 C 1088.699 1415.113, 1139.508 1387.505, 1142 1384.009 C 1142.275 1383.623, 1145.650 1381.143, 1149.500 1378.497 C 1180.304 1357.326, 1216.739 1320.651, 1237.069 1290.354 C 1239.967 1286.034, 1242.653 1282.275, 1243.037 1282 C 1243.774 1281.471, 1251 1270.348, 1251 1269.740 C 1251 1269.545, 1254.825 1262.488, 1259.500 1254.058 C 1264.175 1245.629, 1268 1238.583, 1268 1238.401 C 1268 1238.218, 1271.330 1230.066, 1275.400 1220.285 C 1282.100 1204.182, 1289.271 1183.452, 1290.374 1177 C 1290.609 1175.625, 1292.164 1168.650, 1293.831 1161.500 C 1300.241 1133.992, 1302.993 1109.515, 1302.993 1080 C 1302.993 1050.485, 1300.241 1026.008, 1293.831 998.500 C 1292.164 991.350, 1290.609 984.375, 1290.374 983 C 1289.271 976.548, 1282.100 955.818, 1275.400 939.715 C 1271.330 929.934, 1268 921.782, 1268 921.599 C 1268 921.417, 1264.175 914.371, 1259.500 905.942 C 1254.825 897.512, 1251 890.455, 1251 890.260 C 1251 889.652, 1243.774 878.529, 1243.037 878 C 1242.653 877.725, 1239.967 873.966, 1237.069 869.646 C 1216.739 839.349, 1180.304 802.674, 1149.500 781.503 C 1145.650 778.857, 1142.275 776.377, 1142 775.991 C 1139.508 772.495, 1088.699 744.887, 1082.216 743.507 C 1080.536 743.149, 1070.449 739.190, 1064.500 736.553 C 1057.763 733.567, 1030.425 725.198, 1025.068 724.481 C 1023.655 724.292, 1022.500 724.055, 1022.500 723.955 C 1022.500 723.854, 1021.375 723.632, 1020 723.461 C 1018.625 723.289, 1013 722.240, 1007.500 721.130 C 992.751 718.152, 976.843 715.951, 965.250 715.287 C 959.612 714.963, 955 714.316, 955 713.849 C 955 713.382, 850.600 713, 723 713 C 569 713, 491 713.336, 491 714 M 499.500 845.133 C 475.189 847.283, 444.489 855.366, 421.730 865.610 C 411.044 870.420, 395.300 879.133, 388.852 883.807 C 359.515 905.071, 342.273 922.242, 324.922 947.476 C 323.040 950.213, 320.774 953.270, 319.886 954.269 C 316.948 957.575, 298.438 995.634, 297.646 1000 C 297.396 1001.375, 295.620 1007.675, 293.699 1014 C 286.794 1036.738, 284.019 1055.642, 284.011 1080 C 284.003 1103.800, 287.317 1125.787, 294.023 1146.414 C 295.728 1151.660, 297.326 1157.201, 297.574 1158.726 C 297.822 1160.252, 302.724 1170.950, 308.467 1182.500 C 317.352 1200.367, 320.589 1205.738, 330.166 1218.500 C 355.270 1251.957, 385.760 1276.759, 423.765 1294.639 C 429.960 1297.553, 435.360 1299.973, 435.765 1300.015 C 436.169 1300.058, 442.800 1302.103, 450.500 1304.560 C 466.668 1309.719, 485.565 1313.542, 502 1314.978 C 517.854 1316.363, 928.278 1316.340, 944.500 1314.953 C 966.848 1313.042, 983.218 1309.336, 1010.290 1300.060 C 1028.320 1293.882, 1052.308 1280.320, 1072 1265.171 C 1083.242 1256.523, 1099.448 1240.656, 1108.434 1229.500 C 1116.282 1219.756, 1128 1202.789, 1128 1201.169 C 1128 1200.618, 1128.338 1200.017, 1128.750 1199.833 C 1131.546 1198.591, 1143.902 1171.682, 1149.594 1154.439 C 1159.368 1124.833, 1162.557 1103.380, 1161.701 1073 C 1160.945 1046.191, 1156.726 1024.033, 1147.478 998.298 C 1143.964 988.520, 1132.852 964.807, 1130.658 962.405 C 1130.021 961.708, 1127.968 958.419, 1126.096 955.095 C 1120.721 945.552, 1107.417 928.391, 1097.030 917.602 C 1060.026 879.168, 1014.472 855.815, 958 846.328 C 948.211 844.683, 932.662 844.553, 728.500 844.406 C 608.050 844.320, 505 844.647, 499.500 845.133 M 2453.129 930.127 C 2440.303 932.256, 2429.019 941.218, 2419.194 957.077 C 2416.612 961.244, 2411.900 968.669, 2408.722 973.577 C 2405.545 978.485, 2398.208 989.925, 2392.419 999 C 2386.630 1008.075, 2378.067 1021.350, 2373.391 1028.500 C 2368.714 1035.650, 2364.612 1042.175, 2364.276 1043 C 2363.940 1043.825, 2359.101 1051.475, 2353.522 1060 C 2344.413 1073.919, 2333.138 1091.586, 2321.612 1110 C 2319.375 1113.575, 2317.240 1116.725, 2316.868 1117 C 2316.496 1117.275, 2312.846 1122.900, 2308.757 1129.500 C 2295.585 1150.759, 2283.676 1169.487, 2283.003 1170 C 2282.643 1170.275, 2276.580 1179.725, 2269.531 1191 C 2262.481 1202.275, 2254.303 1215.131, 2251.357 1219.568 C 2248.410 1224.005, 2246 1228.399, 2246 1229.332 C 2246 1230.897, 2248.554 1231.007, 2279.250 1230.763 L 2312.500 1230.500 2317.784 1222.500 C 2320.690 1218.100, 2326.718 1208.650, 2331.180 1201.500 C 2347.334 1175.610, 2352.461 1167.482, 2353.256 1166.500 C 2354.590 1164.854, 2373.899 1134.020, 2378.107 1126.816 C 2380.254 1123.139, 2382.594 1119.539, 2383.306 1118.816 C 2384.017 1118.092, 2387.219 1113.225, 2390.421 1108 C 2396.895 1097.435, 2413.389 1071.276, 2424.048 1054.669 C 2427.872 1048.712, 2431 1043.662, 2431 1043.446 C 2431 1042.955, 2445.021 1020.922, 2446.222 1019.526 C 2446.708 1018.962, 2450.065 1013.677, 2453.682 1007.782 L 2460.259 997.064 2468.129 1008.951 C 2472.458 1015.488, 2476 1021.060, 2476 1021.332 C 2476 1021.604, 2479.758 1027.828, 2484.351 1035.163 C 2488.944 1042.498, 2497.381 1056.029, 2503.101 1065.231 C 2513.040 1081.222, 2517.123 1087.758, 2532.199 1111.812 C 2535.884 1117.690, 2538.921 1122.838, 2538.949 1123.250 C 2538.977 1123.662, 2505.250 1124, 2464 1124 C 2402.956 1124, 2389 1124.243, 2389 1125.306 C 2389 1126.024, 2395.637 1136.809, 2403.750 1149.272 C 2411.863 1161.735, 2419.267 1173.297, 2420.203 1174.966 L 2421.907 1178 2499.203 1178.050 L 2576.500 1178.100 2592.500 1204.300 L 2608.500 1230.500 2641.436 1230.764 C 2660.273 1230.915, 2674.762 1230.638, 2675.282 1230.118 C 2675.828 1229.572, 2672.429 1223.473, 2666.777 1214.854 C 2657.999 1201.471, 2645.606 1182.078, 2633.001 1162 C 2630.066 1157.325, 2627.354 1153.275, 2626.975 1153 C 2626.596 1152.725, 2623.368 1147.775, 2619.802 1142 C 2616.235 1136.225, 2610.407 1127, 2606.850 1121.500 C 2603.293 1116, 2599.314 1109.588, 2598.007 1107.250 C 2596.701 1104.912, 2595.265 1103, 2594.816 1103 C 2594.367 1103, 2594 1102.362, 2594 1101.583 C 2594 1100.804, 2593.662 1100.017, 2593.250 1099.833 C 2592.838 1099.650, 2590.207 1095.900, 2587.405 1091.500 C 2584.603 1087.100, 2577.728 1076.300, 2572.127 1067.500 C 2566.527 1058.700, 2557.907 1045.276, 2552.972 1037.670 C 2548.038 1030.063, 2544 1023.663, 2544 1023.447 C 2544 1023.231, 2536.884 1012.129, 2528.188 998.777 C 2519.491 985.425, 2509.703 970.083, 2506.438 964.684 C 2503.172 959.285, 2499.713 954.016, 2498.750 952.976 C 2497.787 951.935, 2497 950.684, 2497 950.195 C 2497 949.118, 2485.588 937, 2484.574 937 C 2484.180 937, 2483.221 936.364, 2482.444 935.587 C 2480.519 933.662, 2469.615 930.275, 2463.500 929.703 C 2460.750 929.445, 2456.083 929.636, 2453.129 930.127 M 1530.050 933.059 C 1517.428 934.315, 1507.383 936.588, 1494.804 941.035 C 1488.587 943.233, 1482.765 945.213, 1481.867 945.435 C 1479.838 945.938, 1474.062 949.060, 1467.500 953.201 C 1442.010 969.287, 1422.354 990.429, 1409.948 1015.103 C 1404.618 1025.704, 1398.635 1043.518, 1396.381 1055.500 C 1393.637 1070.089, 1393.843 1095.821, 1396.815 1109.648 C 1408.771 1165.267, 1445.870 1206.573, 1499 1223.417 C 1521.400 1230.519, 1518.343 1230.334, 1620 1230.756 C 1730.186 1231.213, 1736.430 1230.867, 1761 1222.948 C 1823.659 1202.752, 1866.309 1142.146, 1863.707 1077 C 1863.050 1060.555, 1861.065 1049.129, 1856.620 1036.208 C 1849.582 1015.752, 1845.671 1008.241, 1833.164 991.161 C 1823.452 977.899, 1806.211 962.401, 1792.108 954.257 C 1789.574 952.793, 1787.275 951.296, 1787 950.929 C 1786.399 950.128, 1776.239 944.941, 1775.483 945.050 C 1775.192 945.092, 1772.376 944.151, 1769.226 942.959 C 1760.146 939.523, 1748.411 936.156, 1739.098 934.315 C 1731.415 932.797, 1720.279 932.595, 1634.500 932.417 C 1581.700 932.307, 1534.697 932.596, 1530.050 933.059 M 1893.997 933 C 1893.995 933.550, 1893.993 1000.375, 1893.993 1081.500 C 1893.993 1162.625, 1893.995 1229.450, 1893.997 1230 C 1893.999 1230.643, 1904.169 1231, 1922.500 1231 L 1951 1231 1951 1109 L 1951 987 2049.750 987.047 L 2148.500 987.094 2155.278 989.342 C 2178.210 996.947, 2192.068 1023.070, 2185.156 1045.664 C 2180.190 1061.894, 2170.374 1072.522, 2155.629 1077.632 L 2147.500 1080.449 2063.250 1080.104 C 1992.373 1079.813, 1979.006 1079.976, 1979.040 1081.129 C 1979.062 1081.883, 1981.200 1084.179, 1983.790 1086.231 C 1986.381 1088.282, 1991.180 1092.445, 1994.456 1095.481 C 1997.732 1098.516, 2000.634 1101, 2000.905 1101 C 2001.176 1101, 2003.220 1102.747, 2005.449 1104.882 C 2015.529 1114.541, 2018.541 1117.172, 2096.410 1184.361 C 2135.009 1217.665, 2148.533 1229.492, 2148.833 1230.206 C 2149.017 1230.643, 2167.579 1231, 2190.083 1231 C 2229.356 1231, 2231 1230.925, 2231 1229.134 C 2231 1228.107, 2229.057 1225.745, 2226.682 1223.884 C 2217.779 1216.907, 2135.368 1148.372, 2132.261 1145.361 C 2130.480 1143.635, 2128.343 1141.962, 2127.511 1141.643 C 2126.680 1141.324, 2126 1140.615, 2126 1140.067 C 2126 1139.520, 2124.387 1137.976, 2122.416 1136.637 L 2118.832 1134.201 2140.166 1133.751 C 2159.840 1133.335, 2162.197 1133.087, 2170.454 1130.567 C 2195.002 1123.073, 2213.832 1109.083, 2227.930 1087.863 C 2249.798 1054.947, 2249.737 1011.961, 2227.775 978.904 C 2210.302 952.605, 2183.020 935.992, 2152.415 933.016 C 2138.724 931.684, 1894.001 931.670, 1893.997 933 M 2781.825 933.051 C 2737.758 936.972, 2695.550 961.844, 2671.288 998.189 C 2641.702 1042.509, 2637.174 1096.207, 2659.092 1142.809 C 2661.241 1147.379, 2663 1151.309, 2663 1151.542 C 2663 1152.799, 2672.096 1166.576, 2677.498 1173.500 C 2699.665 1201.915, 2732.910 1221.469, 2771.500 1228.791 C 2779.590 1230.326, 2790.095 1230.499, 2875.389 1230.499 L 2970.277 1230.500 2976.121 1221.500 C 2979.335 1216.550, 2982.285 1211.825, 2982.677 1211 C 2983.068 1210.175, 2983.902 1208.979, 2984.531 1208.342 C 2985.160 1207.704, 2987.027 1205.004, 2988.680 1202.342 C 2990.333 1199.679, 2994.457 1193.109, 2997.843 1187.742 C 3001.229 1182.376, 3004 1177.538, 3004 1176.992 C 3004 1176.342, 2966.627 1176, 2895.565 1176 C 2778.530 1176, 2782.792 1176.176, 2765.822 1170.637 C 2758.647 1168.295, 2750.098 1164.471, 2749 1163.113 C 2748.725 1162.773, 2746.492 1161.146, 2744.037 1159.497 C 2741.582 1157.849, 2736.527 1153.640, 2732.803 1150.144 C 2713.687 1132.200, 2702.964 1107.841, 2702.923 1082.267 C 2702.913 1076.084, 2703.195 1069.331, 2703.549 1067.262 C 2705.537 1055.654, 2712.458 1037.775, 2718.411 1028.867 C 2721.918 1023.620, 2734.529 1010.706, 2742.500 1004.200 C 2747.243 1000.329, 2763.235 992.151, 2767.500 991.416 C 2769.150 991.132, 2772.750 990.139, 2775.500 989.211 C 2780.023 987.684, 2789.335 987.495, 2873.152 987.232 L 2965.804 986.941 2969.738 980.720 C 2976.315 970.322, 2996.214 938.646, 2997.651 936.285 C 2998.393 935.067, 2999 933.605, 2999 933.035 C 2999 931.808, 2795.626 931.823, 2781.825 933.051 M 3030 1070.258 L 3030 1208.516 3032.566 1213.508 C 3035.658 1219.525, 3041.885 1225.530, 3048 1228.393 C 3052.496 1230.498, 3052.628 1230.500, 3185.297 1230.775 C 3301.400 1231.015, 3318.279 1230.864, 3319.572 1229.571 C 3320.385 1228.758, 3324.782 1222.109, 3329.344 1214.796 C 3333.905 1207.483, 3340.868 1196.506, 3344.818 1190.403 C 3348.768 1184.299, 3352 1178.562, 3352 1177.653 C 3352 1176.124, 3342.092 1176, 3220 1176 L 3088 1176 3088 1055.200 C 3088 962.578, 3087.720 934.120, 3086.800 933.200 C 3085.924 932.324, 3078.089 932, 3057.800 932 L 3030 932 3030 1070.258 M 3479 932.685 C 3460.645 934.054, 3434.493 941.332, 3420.102 949.077 C 3384.914 968.015, 3360.237 996.546, 3347.570 1032.937 C 3334.698 1069.917, 3336.584 1107.421, 3353.126 1143.440 C 3374.136 1189.186, 3412.220 1218.339, 3464.500 1228.697 C 3471.363 1230.057, 3486.005 1230.341, 3567.520 1230.700 L 3662.541 1231.118 3664.597 1228.809 C 3665.728 1227.539, 3669.251 1222.261, 3672.425 1217.080 C 3675.599 1211.900, 3678.827 1207.030, 3679.597 1206.260 C 3680.368 1205.489, 3682.220 1202.753, 3683.713 1200.179 C 3685.205 1197.606, 3688.806 1191.792, 3691.713 1187.259 C 3694.621 1182.727, 3697 1178.339, 3697 1177.509 C 3697 1176.173, 3684.631 1176, 3589.065 1176 C 3473.010 1176, 3476.224 1176.129, 3460 1170.839 C 3453.768 1168.808, 3442.045 1163.425, 3441 1162.115 C 3440.725 1161.771, 3438.025 1159.648, 3435 1157.399 C 3428.108 1152.275, 3420.967 1145.122, 3415.631 1138 C 3413.365 1134.975, 3411.232 1132.275, 3410.890 1132 C 3409.167 1130.613, 3401 1111.605, 3401 1108.981 C 3401 1108.357, 3444.611 1107.917, 3522.611 1107.754 L 3644.222 1107.500 3652.380 1094.500 C 3656.867 1087.350, 3664.028 1076.220, 3668.293 1069.768 C 3672.559 1063.315, 3676.311 1057.352, 3676.632 1056.518 C 3677.151 1055.165, 3662.173 1055, 3539.107 1055 C 3454.443 1055, 3401 1054.639, 3401 1054.068 C 3401 1049.110, 3413.601 1024, 3416.090 1024 C 3416.590 1024, 3417 1023.425, 3417 1022.723 C 3417 1021.467, 3429.961 1008, 3431.169 1008 C 3431.510 1008, 3433.115 1006.761, 3434.736 1005.247 C 3438.060 1002.142, 3456.176 992.388, 3460.001 991.643 C 3461.375 991.376, 3466.325 990.225, 3471 989.085 C 3479.274 987.069, 3481.885 987.014, 3569.095 987.007 C 3653.176 987, 3658.783 986.892, 3660.201 985.250 C 3661.032 984.288, 3665.676 977.200, 3670.521 969.500 C 3675.365 961.800, 3682.405 950.649, 3686.165 944.721 C 3689.924 938.792, 3693 933.504, 3693 932.971 C 3693 932.080, 3490.738 931.810, 3479 932.685 M 1531.500 987.703 C 1497.401 992.607, 1467.348 1017.970, 1456.625 1050.893 C 1452.034 1064.990, 1450.384 1078.681, 1451.816 1090.791 C 1452.758 1098.762, 1455.433 1110.144, 1457.857 1116.500 C 1459.921 1121.911, 1466.529 1134.090, 1468.629 1136.355 C 1469.933 1137.762, 1471 1139.311, 1471 1139.798 C 1471 1140.713, 1479.995 1149.460, 1488.209 1156.534 C 1495.264 1162.610, 1505.075 1167.641, 1517.933 1171.779 L 1529.500 1175.500 1629 1175.500 L 1728.500 1175.500 1740.500 1171.675 C 1774.864 1160.721, 1796.997 1135.997, 1805.110 1099.500 C 1805.883 1096.020, 1806.403 1088.040, 1806.348 1080.500 C 1806.197 1059.883, 1801.209 1043.808, 1789.873 1027.411 C 1777.366 1009.318, 1758.669 995.915, 1737.500 989.867 L 1729.500 987.581 1632 987.426 C 1578.375 987.341, 1533.150 987.466, 1531.500 987.703" stroke="none" fill="#ff141c" fill-rule="evenodd"/><path d="" stroke="none" fill="#fc141c" fill-rule="evenodd"/></svg>