<svg id="svg" version="1.1" xmlns="http://www.w3.org/2000/svg" xmlns:xlink="http://www.w3.org/1999/xlink" width="400" height="400" viewBox="0, 0, 400,400"><g id="svgg"><path id="path0" d="M147.609 0.904 C 141.093 2.875,135.236 7.708,132.436 13.424 C 129.639 19.131,129.700 18.318,129.693 50.330 L 129.688 78.981 127.441 77.712 C 123.630 75.558,122.919 75.149,120.784 73.883 C 119.646 73.208,118.658 72.656,118.587 72.656 C 118.517 72.656,116.899 71.729,114.991 70.596 C 113.084 69.464,111.084 68.320,110.547 68.054 C 110.010 67.789,109.043 67.244,108.398 66.843 C 106.301 65.540,99.515 61.719,99.297 61.719 C 99.180 61.719,98.807 61.478,98.468 61.183 C 98.129 60.889,97.061 60.208,96.094 59.671 C 92.788 57.832,83.790 52.713,82.813 52.115 C 71.673 45.292,55.268 48.891,48.935 59.546 C 42.253 70.789,43.502 82.714,52.264 91.309 C 54.070 93.081,55.683 94.531,55.848 94.531 C 56.012 94.531,57.401 95.278,58.935 96.191 C 62.185 98.127,64.258 99.340,65.625 100.107 C 66.654 100.684,67.805 101.339,73.828 104.769 C 79.253 107.859,79.438 107.968,80.078 108.441 C 80.400 108.680,81.631 109.401,82.813 110.044 C 83.994 110.687,85.576 111.562,86.328 111.988 C 87.080 112.414,88.750 113.346,90.039 114.059 C 91.328 114.772,93.499 116.032,94.864 116.858 C 96.229 117.684,97.446 118.359,97.568 118.359 C 97.690 118.359,98.068 118.598,98.407 118.891 C 98.746 119.183,99.990 119.952,101.172 120.601 C 105.870 123.180,112.371 126.902,117.296 129.833 C 118.968 130.827,120.397 131.641,120.472 131.641 C 120.615 131.641,129.401 136.696,131.445 137.954 C 132.090 138.351,133.145 138.943,133.789 139.270 C 134.434 139.598,135.664 140.297,136.523 140.825 C 137.383 141.353,139.668 142.651,141.602 143.710 C 156.819 152.048,174.756 144.713,178.921 128.451 C 179.664 125.548,179.688 123.854,179.688 73.691 C 179.688 20.307,179.643 18.600,178.177 15.728 C 177.984 15.349,177.586 14.512,177.293 13.867 C 172.528 3.386,158.974 -2.533,147.609 0.904 M238.443 0.762 C 230.368 3.149,223.951 9.212,221.464 16.806 L 220.508 19.727 220.508 73.633 C 220.508 132.537,220.347 127.872,222.545 132.776 C 226.690 142.024,236.218 147.705,246.667 147.159 C 252.162 146.872,254.897 145.891,262.109 141.620 C 264.365 140.284,267.002 138.747,267.969 138.205 C 270.958 136.529,272.803 135.466,274.023 134.715 C 274.668 134.319,275.582 133.824,276.055 133.615 C 276.528 133.407,277.671 132.754,278.594 132.164 C 279.518 131.573,280.801 130.803,281.445 130.452 C 282.090 130.102,284.463 128.763,286.719 127.477 C 288.975 126.191,291.699 124.644,292.773 124.038 C 293.848 123.432,296.221 122.054,298.047 120.976 C 301.171 119.131,306.868 115.878,311.719 113.170 C 312.900 112.511,315.010 111.274,316.406 110.421 C 317.803 109.569,320.264 108.135,321.875 107.235 C 323.486 106.334,325.508 105.192,326.367 104.697 C 327.227 104.201,328.721 103.358,329.688 102.824 C 330.654 102.289,331.723 101.611,332.062 101.317 C 332.401 101.022,332.793 100.781,332.934 100.781 C 333.358 100.781,343.265 95.031,344.830 93.877 C 357.401 84.604,358.807 65.648,347.674 55.543 C 345.904 53.938,344.920 53.125,344.743 53.125 C 344.648 53.125,343.815 52.620,342.891 52.002 C 336.912 48.006,326.627 47.462,319.922 50.789 C 317.491 51.995,312.209 54.909,310.156 56.177 C 309.404 56.642,308.428 57.182,307.988 57.378 C 307.547 57.574,306.405 58.253,305.449 58.888 C 304.493 59.522,302.480 60.704,300.977 61.514 C 298.149 63.037,294.129 65.303,292.788 66.129 C 290.902 67.292,288.892 68.461,286.060 70.042 C 284.381 70.979,282.305 72.156,281.445 72.656 C 280.586 73.156,279.385 73.844,278.777 74.185 C 278.168 74.526,277.377 74.983,277.019 75.200 C 273.998 77.033,270.722 78.906,270.537 78.906 C 270.414 78.906,270.313 66.107,270.313 50.462 C 270.313 16.698,270.371 17.247,266.084 10.943 C 259.989 1.981,248.561 -2.228,238.443 0.762 M20.117 126.760 C 10.887 128.458,3.008 135.882,0.592 145.155 C -0.495 149.331,0.133 158.788,1.600 160.332 C 1.794 160.536,1.953 161.000,1.953 161.362 C 1.953 162.357,4.833 166.464,7.178 168.814 C 9.933 171.575,10.046 171.657,14.192 173.925 C 16.162 175.002,18.037 176.100,18.359 176.364 C 18.682 176.628,20.000 177.419,21.289 178.122 C 22.578 178.825,24.336 179.785,25.195 180.254 C 26.693 181.073,30.169 183.093,32.359 184.417 C 33.622 185.181,35.376 186.174,38.477 187.882 C 39.766 188.592,41.261 189.456,41.799 189.801 C 43.500 190.894,44.220 191.317,49.328 194.227 C 52.074 195.791,54.975 197.462,55.774 197.941 C 56.573 198.421,57.622 199.020,58.105 199.274 C 59.506 200.008,59.020 200.477,54.102 203.134 C 52.812 203.830,51.582 204.534,51.367 204.698 C 50.981 204.992,49.320 205.944,46.289 207.611 C 45.430 208.084,43.672 209.050,42.383 209.759 C 41.094 210.467,39.762 211.286,39.422 211.578 C 39.083 211.870,38.653 212.109,38.467 212.109 C 38.280 212.109,37.503 212.525,36.740 213.032 C 35.976 213.540,34.209 214.595,32.813 215.377 C 31.416 216.160,29.482 217.264,28.516 217.831 C 27.549 218.398,26.055 219.248,25.195 219.721 C 24.336 220.193,22.578 221.160,21.289 221.869 C 20.000 222.579,18.724 223.333,18.453 223.545 C 17.856 224.013,16.093 225.032,13.493 226.411 C 0.405 233.358,-3.914 248.740,3.576 261.731 C 6.440 266.698,13.557 272.057,18.359 272.861 C 19.111 272.987,20.425 273.246,21.278 273.437 C 26.590 274.626,33.665 272.888,40.555 268.703 C 41.926 267.869,43.124 267.188,43.217 267.188 C 43.310 267.188,45.094 266.156,47.181 264.895 C 50.622 262.816,53.503 261.169,59.766 257.700 C 60.947 257.045,62.617 256.066,63.477 255.524 C 64.336 254.982,66.797 253.547,68.945 252.334 C 71.094 251.122,73.511 249.749,74.316 249.284 C 75.122 248.818,76.440 248.068,77.246 247.616 C 78.052 247.164,80.117 245.961,81.836 244.943 C 83.555 243.926,86.955 241.967,89.391 240.590 C 91.828 239.213,94.289 237.791,94.860 237.431 C 95.431 237.070,96.514 236.442,97.266 236.034 C 101.922 233.508,108.883 229.504,109.406 229.051 C 109.745 228.756,110.117 228.516,110.233 228.516 C 110.531 228.516,123.516 221.057,124.113 220.543 C 124.385 220.309,125.370 219.502,126.303 218.750 C 134.301 212.305,137.110 199.251,132.580 189.585 C 129.423 182.848,125.867 179.945,109.961 171.121 C 107.448 169.726,105.769 168.762,103.205 167.242 C 102.068 166.568,101.028 166.016,100.895 166.016 C 100.761 166.016,99.382 165.225,97.831 164.258 C 96.280 163.291,94.815 162.500,94.576 162.500 C 94.336 162.500,94.141 162.336,94.141 162.136 C 94.141 161.935,93.745 161.651,93.262 161.504 C 92.778 161.356,92.119 161.017,91.797 160.751 C 91.475 160.484,90.244 159.733,89.063 159.081 C 85.220 156.962,78.786 153.295,75.391 151.290 C 73.564 150.211,71.279 148.889,70.313 148.352 C 69.346 147.815,67.939 147.022,67.188 146.588 C 66.436 146.155,64.502 145.050,62.891 144.134 C 61.279 143.218,57.448 140.999,54.376 139.203 C 51.305 137.407,48.708 135.938,48.606 135.938 C 48.504 135.938,47.765 135.523,46.964 135.017 C 44.847 133.680,35.991 128.768,34.276 127.979 C 30.701 126.337,25.058 125.850,20.117 126.760 M371.484 126.403 C 367.510 127.125,363.471 128.792,358.789 131.639 C 357.715 132.293,356.484 133.002,356.055 133.215 C 355.625 133.428,354.570 134.041,353.711 134.577 C 352.852 135.113,351.517 135.891,350.746 136.306 C 349.975 136.722,346.371 138.765,342.738 140.846 C 333.930 145.893,333.582 146.094,332.227 146.909 C 331.582 147.297,330.615 147.859,330.078 148.157 C 329.541 148.456,326.816 150.021,324.023 151.635 C 321.230 153.250,318.154 155.012,317.188 155.551 C 316.221 156.089,314.727 156.931,313.867 157.422 C 313.008 157.912,311.514 158.747,310.547 159.277 C 309.580 159.807,308.174 160.643,307.422 161.134 C 305.992 162.067,305.155 162.551,298.438 166.333 C 296.182 167.603,293.633 169.043,292.773 169.535 C 291.914 170.026,290.244 170.954,289.063 171.597 C 287.881 172.240,286.650 172.961,286.328 173.199 C 286.006 173.438,285.303 173.884,284.766 174.190 C 273.202 180.794,270.679 182.936,268.003 188.431 C 261.233 202.329,266.228 215.634,281.250 223.717 C 285.141 225.811,287.179 226.988,287.891 227.551 C 288.213 227.807,289.443 228.542,290.625 229.185 C 291.807 229.828,293.477 230.761,294.336 231.258 C 295.195 231.756,297.041 232.775,298.438 233.522 C 299.834 234.270,302.541 235.822,304.453 236.972 C 306.365 238.122,308.021 239.063,308.133 239.063 C 308.245 239.063,308.614 239.302,308.954 239.594 C 309.293 239.886,310.537 240.657,311.719 241.308 C 319.261 245.459,324.161 248.239,325.060 248.876 C 325.631 249.279,326.232 249.609,326.397 249.609 C 326.561 249.609,326.974 249.848,327.313 250.141 C 327.868 250.618,329.006 251.275,334.180 254.102 C 336.436 255.336,342.868 259.034,344.502 260.038 C 346.090 261.014,350.116 263.346,352.762 264.824 C 355.320 266.252,360.872 269.439,362.648 270.498 C 381.101 281.504,404.402 263.839,399.403 242.634 C 397.198 233.280,393.317 229.832,371.094 217.483 C 367.552 215.515,353.309 207.331,352.930 207.047 C 352.715 206.885,351.572 206.226,350.391 205.583 C 347.922 204.237,346.491 203.421,343.045 201.389 L 340.582 199.938 341.873 199.263 C 342.583 198.892,344.922 197.563,347.070 196.310 C 351.432 193.765,352.907 192.918,355.469 191.484 C 356.436 190.943,357.842 190.117,358.594 189.648 C 359.346 189.180,360.840 188.310,361.914 187.716 C 364.446 186.316,368.393 184.056,369.141 183.578 C 369.985 183.037,379.106 177.831,381.641 176.442 C 382.822 175.795,384.715 174.678,385.847 173.961 C 386.980 173.243,388.078 172.656,388.289 172.656 C 388.500 172.656,388.672 172.480,388.672 172.266 C 388.672 172.051,388.855 171.875,389.079 171.875 C 390.690 171.875,396.062 165.591,398.028 161.407 C 406.061 144.306,389.940 123.046,371.484 126.403 M191.992 154.116 C 190.245 154.984,154.925 190.144,153.949 191.986 C 153.000 193.780,152.734 204.238,153.562 207.227 C 154.036 208.935,189.905 244.994,192.110 245.978 C 193.610 246.648,206.151 246.653,207.740 245.984 C 209.465 245.259,245.054 209.851,246.080 207.840 C 247.094 205.853,247.239 194.579,246.281 192.300 C 245.991 191.611,242.881 188.183,239.369 184.683 C 219.859 165.240,208.665 154.389,207.696 153.978 C 205.999 153.259,193.496 153.369,191.992 154.116 M202.520 184.197 C 204.253 185.019,214.700 195.452,215.645 197.305 C 217.448 200.839,216.608 202.495,209.403 209.605 C 200.135 218.751,199.450 218.738,190.094 209.220 C 181.278 200.251,181.290 199.632,190.478 190.387 C 197.279 183.544,199.134 182.590,202.520 184.197 M150.391 252.977 C 147.576 253.516,143.940 254.904,141.181 256.493 C 136.789 259.023,129.481 263.169,126.953 264.564 C 125.771 265.217,123.878 266.337,122.746 267.055 C 121.614 267.772,120.606 268.359,120.505 268.359 C 120.405 268.359,118.430 269.472,116.118 270.832 C 113.806 272.192,111.123 273.745,110.156 274.283 C 109.189 274.820,107.695 275.667,106.836 276.164 C 105.977 276.661,104.307 277.594,103.125 278.237 C 101.943 278.880,100.713 279.601,100.391 279.840 C 100.068 280.078,99.365 280.523,98.828 280.828 C 98.291 281.134,95.939 282.496,93.602 283.856 C 91.264 285.216,89.304 286.328,89.245 286.328 C 89.147 286.328,86.322 287.918,82.813 289.949 C 82.061 290.384,80.479 291.266,79.297 291.909 C 78.115 292.552,76.885 293.273,76.563 293.512 C 76.240 293.750,75.537 294.196,75.000 294.503 C 74.463 294.810,72.529 295.929,70.703 296.990 C 68.877 298.051,66.064 299.630,64.453 300.498 C 62.842 301.367,61.057 302.401,60.487 302.797 C 59.916 303.192,59.332 303.516,59.188 303.516 C 58.639 303.516,53.650 306.954,52.344 308.232 C 39.967 320.348,43.135 341.479,58.398 348.619 C 62.707 350.634,63.098 350.752,66.942 351.206 C 71.123 351.699,76.159 351.001,79.297 349.493 C 81.065 348.643,91.190 343.062,95.453 340.587 C 96.712 339.856,98.646 338.757,99.750 338.144 C 100.854 337.532,102.035 336.785,102.375 336.484 C 102.714 336.183,103.101 335.938,103.236 335.938 C 103.371 335.938,104.412 335.387,105.549 334.713 C 106.687 334.040,108.936 332.751,110.547 331.848 C 112.158 330.945,114.136 329.826,114.941 329.361 C 117.450 327.913,119.270 326.879,121.094 325.866 C 122.061 325.329,124.307 324.036,126.086 322.992 C 127.865 321.948,129.403 321.094,129.504 321.094 C 129.605 321.094,129.688 334.003,129.688 349.780 C 129.688 373.771,129.782 378.877,130.268 380.969 C 133.784 396.129,151.163 404.480,165.234 397.771 C 169.250 395.856,175.391 390.685,175.391 389.219 C 175.391 388.954,175.537 388.678,175.715 388.607 C 176.299 388.372,178.522 383.215,179.105 380.741 C 179.925 377.263,179.948 275.585,179.130 272.266 C 175.895 259.145,163.084 250.547,150.391 252.977 M239.544 253.328 C 232.554 254.847,226.369 259.761,222.883 266.568 C 220.155 271.894,220.276 268.919,220.398 327.734 L 220.508 380.664 221.527 383.406 C 229.974 406.137,261.861 405.355,269.572 382.227 C 269.980 381.002,270.138 374.217,270.300 350.884 L 270.508 321.104 271.484 321.637 C 272.021 321.929,273.516 322.741,274.805 323.440 C 276.732 324.484,280.872 326.889,285.352 329.565 C 285.781 329.821,286.660 330.305,287.305 330.639 C 287.949 330.973,289.004 331.574,289.648 331.974 C 290.820 332.702,292.460 333.651,295.215 335.197 C 296.811 336.092,303.441 339.915,305.772 341.283 C 306.572 341.753,307.666 342.383,308.203 342.684 C 308.740 342.985,309.883 343.642,310.742 344.143 C 311.602 344.643,313.096 345.478,314.063 345.996 C 315.029 346.515,316.611 347.437,317.578 348.045 C 324.920 352.667,338.228 352.260,344.290 347.228 C 344.530 347.029,345.430 346.327,346.289 345.668 C 359.579 335.479,357.655 313.360,342.721 304.654 C 336.991 301.314,329.500 296.994,327.734 296.011 C 326.768 295.473,325.361 294.678,324.609 294.245 C 323.857 293.812,320.869 292.099,317.969 290.438 C 315.068 288.776,311.729 286.843,310.547 286.141 C 309.365 285.439,307.607 284.428,306.641 283.894 C 305.674 283.360,304.180 282.515,303.320 282.016 C 302.461 281.517,299.912 280.072,297.656 278.803 C 295.400 277.535,292.565 275.897,291.355 275.163 C 290.145 274.429,289.017 273.828,288.847 273.828 C 288.677 273.828,288.261 273.582,287.921 273.281 C 287.582 272.981,286.400 272.234,285.294 271.621 C 284.189 271.009,280.058 268.676,276.115 266.438 C 272.172 264.200,268.610 262.178,268.200 261.946 C 267.790 261.714,266.563 260.952,265.474 260.254 C 264.385 259.556,263.328 258.984,263.126 258.984 C 262.923 258.984,262.479 258.741,262.140 258.444 C 257.252 254.157,246.714 251.771,239.544 253.328 " stroke="none" fill="#249cdc" fill-rule="evenodd"></path><path id="path1" d="M189.624 191.113 L 188.477 192.383 189.746 191.236 C 190.444 190.604,191.016 190.033,191.016 189.966 C 191.016 189.664,190.693 189.930,189.624 191.113 M242.358 212.207 L 241.211 213.477 242.480 212.329 C 243.179 211.698,243.750 211.127,243.750 211.060 C 243.750 210.758,243.428 211.024,242.358 212.207 M161.328 216.211 C 162.057 216.963,162.741 217.578,162.849 217.578 C 162.956 217.578,162.448 216.963,161.719 216.211 C 160.990 215.459,160.306 214.844,160.198 214.844 C 160.091 214.844,160.599 215.459,161.328 216.211 " stroke="none" fill="#289cdc" fill-rule="evenodd"></path><path id="path2" d="M189.624 191.113 L 188.477 192.383 189.746 191.236 C 190.444 190.604,191.016 190.033,191.016 189.966 C 191.016 189.664,190.693 189.930,189.624 191.113 M242.358 212.207 L 241.211 213.477 242.480 212.329 C 243.179 211.698,243.750 211.127,243.750 211.060 C 243.750 210.758,243.428 211.024,242.358 212.207 M161.328 216.211 C 162.057 216.963,162.741 217.578,162.849 217.578 C 162.956 217.578,162.448 216.963,161.719 216.211 C 160.990 215.459,160.306 214.844,160.198 214.844 C 160.091 214.844,160.599 215.459,161.328 216.211 " stroke="none" fill="#289cdc" fill-rule="evenodd"></path><path id="path3" d="M189.624 191.113 L 188.477 192.383 189.746 191.236 C 190.444 190.604,191.016 190.033,191.016 189.966 C 191.016 189.664,190.693 189.930,189.624 191.113 M242.358 212.207 L 241.211 213.477 242.480 212.329 C 243.179 211.698,243.750 211.127,243.750 211.060 C 243.750 210.758,243.428 211.024,242.358 212.207 M161.328 216.211 C 162.057 216.963,162.741 217.578,162.849 217.578 C 162.956 217.578,162.448 216.963,161.719 216.211 C 160.990 215.459,160.306 214.844,160.198 214.844 C 160.091 214.844,160.599 215.459,161.328 216.211 " stroke="none" fill="#289cdc" fill-rule="evenodd"></path><path id="path4" d="M189.624 191.113 L 188.477 192.383 189.746 191.236 C 190.444 190.604,191.016 190.033,191.016 189.966 C 191.016 189.664,190.693 189.930,189.624 191.113 M242.358 212.207 L 241.211 213.477 242.480 212.329 C 243.179 211.698,243.750 211.127,243.750 211.060 C 243.750 210.758,243.428 211.024,242.358 212.207 M161.328 216.211 C 162.057 216.963,162.741 217.578,162.849 217.578 C 162.956 217.578,162.448 216.963,161.719 216.211 C 160.990 215.459,160.306 214.844,160.198 214.844 C 160.091 214.844,160.599 215.459,161.328 216.211 " stroke="none" fill="#289cdc" fill-rule="evenodd"></path></g></svg>