<svg id="svg" version="1.1" xmlns="http://www.w3.org/2000/svg" xmlns:xlink="http://www.w3.org/1999/xlink" width="400" height="398.8988300068823" viewBox="0, 0, 400,398.8988300068823"><g id="svgg"><path id="path0" d="M126.159 100.089 C 112.851 101.702,100.365 106.366,86.927 114.744 L 83.971 116.586 83.968 137.577 C 83.966 149.123,84.016 158.568,84.079 158.568 C 84.143 158.568,85.571 156.966,87.252 155.008 C 101.896 137.954,122.712 131.645,141.363 138.607 C 144.176 139.658,147.133 140.985,156.063 145.210 C 164.462 149.184,169.113 150.397,175.912 150.387 C 184.136 150.376,198.356 147.976,210.048 144.626 C 252.364 132.501,273.528 137.294,311.247 167.544 C 313.493 169.345,315.490 170.919,315.685 171.040 C 315.974 171.220,316.027 168.039,315.969 154.030 L 315.898 136.799 311.769 135.064 C 309.498 134.110,304.295 131.809,300.206 129.950 C 279.798 120.672,270.229 119.468,255.010 124.262 C 218.084 135.895,203.486 133.792,171.094 112.174 C 154.564 101.142,143.043 98.044,126.159 100.089 M178.419 218.303 C 168.704 220.096,159.411 223.406,151.644 227.836 C 136.775 236.319,115.787 243.992,98.176 247.383 C 93.268 248.328,93.434 248.019,95.866 251.672 C 112.238 276.252,149.074 302.784,195.404 323.365 C 200.287 325.534,199.648 325.491,203.166 323.894 C 243.945 305.391,284.934 276.236,300.003 255.016 C 300.809 253.881,300.826 253.913,299.312 253.688 C 296.790 253.315,281.980 249.452,276.241 247.671 C 263.306 243.657,254.067 240.014,236.339 231.935 C 220.906 224.904,210.203 221.064,201.101 219.295 C 193.694 217.855,183.307 217.400,178.419 218.303 " stroke="none" fill="#6e1de0" fill-rule="evenodd"></path><path id="path1" d="M83.964 66.251 C 83.964 97.597,83.988 99.170,84.446 98.774 C 104.572 81.382,131.579 74.185,157.467 79.316 C 166.123 81.032,173.570 84.541,187.199 93.325 C 210.648 108.438,214.952 109.497,236.614 105.483 C 274.104 98.536,286.117 101.067,311.838 121.328 L 315.760 124.418 315.760 78.864 L 315.760 33.310 199.862 33.310 L 83.964 33.310 83.964 66.251 " stroke="none" fill="#14ab3c" fill-rule="evenodd"></path><path id="path2" d="M116.173 156.208 C 109.176 157.667,103.101 161.020,90.508 170.372 L 83.976 175.224 83.971 185.547 C 83.960 209.549,85.499 229.739,87.797 235.738 C 88.159 236.684,87.855 236.762,94.012 234.133 C 108.892 227.779,125.127 219.156,135.857 211.907 C 145.560 205.351,147.757 203.956,150.998 202.295 C 171.266 191.904,194.530 190.097,215.967 197.248 C 225.459 200.414,243.963 209.144,257.398 216.795 C 269.914 223.923,289.534 233.564,304.684 240.031 C 306.843 240.953,308.709 241.707,308.829 241.707 C 309.498 241.707,312.851 232.754,313.798 228.439 C 315.722 219.673,315.590 221.597,315.607 202.097 L 315.623 184.372 311.218 182.386 C 308.796 181.294,301.363 177.733,294.701 174.473 C 261.086 158.023,253.555 157.442,215.003 168.326 C 183.323 177.271,165.195 177.096,149.456 167.697 C 142.516 163.553,135.706 160.054,128.975 157.173 L 126.222 155.995 122.092 155.915 C 119.382 155.863,117.348 155.963,116.173 156.208 M288.507 267.997 C 287.379 269.133,286.518 270.062,286.593 270.062 C 286.669 270.062,287.654 269.133,288.782 267.997 C 289.910 266.862,290.771 265.933,290.695 265.933 C 290.619 265.933,289.635 266.862,288.507 267.997 M109.842 268.823 C 110.355 269.353,110.838 269.787,110.913 269.787 C 110.989 269.787,110.631 269.353,110.117 268.823 C 109.603 268.293,109.121 267.860,109.045 267.860 C 108.970 267.860,109.328 268.293,109.842 268.823 M288.502 293.393 L 285.065 296.903 288.575 293.466 C 291.836 290.273,292.210 289.883,292.012 289.883 C 291.972 289.883,290.393 291.462,288.502 293.393 M113.696 297.677 C 113.696 297.725,114.098 298.127,114.591 298.572 L 115.485 299.381 114.677 298.486 C 113.923 297.652,113.696 297.465,113.696 297.677 M292.756 307.020 L 291.948 307.915 292.842 307.106 C 293.676 306.352,293.864 306.125,293.651 306.125 C 293.604 306.125,293.201 306.528,292.756 307.020 M284.087 315.692 L 283.138 316.724 284.171 315.775 C 285.132 314.892,285.330 314.659,285.119 314.659 C 285.073 314.659,284.609 315.124,284.087 315.692 M113.971 316.173 C 114.485 316.703,114.967 317.137,115.043 317.137 C 115.118 317.137,114.760 316.703,114.246 316.173 C 113.733 315.643,113.251 315.210,113.175 315.210 C 113.099 315.210,113.457 315.643,113.971 316.173 " stroke="none" fill="#1494a4" fill-rule="evenodd"></path><path id="path3" d="M83.452 32.852 C 83.006 33.388,82.994 99.563,83.439 100.099 C 83.874 100.623,84.581 100.579,85.220 99.988 C 85.745 99.503,89.057 96.877,90.847 95.526 C 91.349 95.148,91.917 94.683,92.109 94.494 C 92.302 94.305,92.527 94.150,92.610 94.150 C 92.692 94.150,94.033 93.326,95.589 92.319 C 99.007 90.106,99.786 89.653,102.271 88.436 C 107.731 85.762,108.658 85.341,109.071 85.341 C 109.318 85.341,109.562 85.243,109.612 85.123 C 109.663 85.003,110.819 84.546,112.182 84.108 C 113.544 83.670,114.777 83.211,114.921 83.087 C 115.065 82.964,115.460 82.863,115.799 82.863 C 116.139 82.863,116.493 82.739,116.586 82.588 C 116.680 82.436,117.114 82.312,117.550 82.312 C 117.986 82.312,118.420 82.189,118.513 82.037 C 118.607 81.886,119.103 81.762,119.615 81.762 C 120.127 81.762,120.622 81.638,120.716 81.487 C 120.809 81.335,121.243 81.211,121.679 81.211 C 122.116 81.211,122.549 81.087,122.643 80.936 C 122.736 80.785,123.303 80.661,123.902 80.661 C 124.500 80.661,125.205 80.548,125.468 80.410 C 127.444 79.372,144.074 78.776,149.897 79.534 C 151.259 79.712,153.276 79.932,154.379 80.024 C 155.482 80.116,156.449 80.297,156.529 80.426 C 156.609 80.555,157.155 80.661,157.743 80.661 C 158.330 80.661,158.888 80.785,158.981 80.936 C 159.075 81.087,159.509 81.211,159.945 81.211 C 160.381 81.211,160.815 81.335,160.908 81.487 C 161.002 81.638,161.383 81.762,161.754 81.762 C 162.126 81.762,162.645 81.871,162.908 82.005 C 163.472 82.292,163.917 82.473,167.378 83.819 C 170.151 84.897,171.283 85.390,171.507 85.616 C 171.583 85.692,172.016 85.940,172.469 86.167 C 172.922 86.394,174.707 87.354,176.436 88.300 C 178.165 89.246,179.684 90.021,179.811 90.021 C 179.937 90.021,180.041 90.145,180.041 90.296 C 180.041 90.447,180.204 90.571,180.402 90.571 C 180.601 90.571,181.029 90.819,181.354 91.122 C 181.679 91.425,182.074 91.672,182.232 91.672 C 182.390 91.672,182.519 91.782,182.519 91.916 C 182.519 92.049,182.736 92.227,183.001 92.311 C 183.534 92.479,185.605 93.644,185.822 93.898 C 185.935 94.030,188.178 95.526,191.475 97.668 C 191.773 97.862,192.233 98.093,192.498 98.182 C 192.763 98.271,192.980 98.453,192.980 98.587 C 192.980 98.721,193.143 98.830,193.341 98.830 C 193.540 98.830,193.968 99.078,194.293 99.381 C 194.618 99.683,194.958 99.931,195.048 99.931 C 195.139 99.931,195.918 100.406,196.780 100.986 C 197.643 101.567,199.030 102.403,199.862 102.844 C 200.695 103.286,201.418 103.741,201.468 103.854 C 201.519 103.968,201.797 104.061,202.088 104.061 C 202.378 104.061,202.615 104.184,202.615 104.336 C 202.615 104.487,202.789 104.611,203.002 104.611 C 203.215 104.611,203.927 104.877,204.585 105.201 C 205.243 105.525,206.029 105.884,206.332 105.999 C 208.844 106.950,211.471 107.639,212.582 107.639 C 213.096 107.639,213.635 107.752,213.778 107.889 C 214.386 108.470,225.305 109.010,225.830 108.485 C 225.992 108.323,226.898 108.190,227.843 108.190 C 228.788 108.190,229.638 108.066,229.732 107.915 C 229.825 107.763,230.421 107.636,231.055 107.633 C 231.690 107.629,232.734 107.505,233.376 107.357 C 234.018 107.209,235.380 106.953,236.404 106.789 C 237.428 106.625,238.885 106.373,239.642 106.228 C 243.009 105.587,244.134 105.398,245.423 105.259 C 246.180 105.178,246.917 104.999,247.061 104.861 C 247.205 104.724,248.096 104.611,249.041 104.611 C 249.986 104.611,250.836 104.487,250.929 104.336 C 251.023 104.184,251.934 104.061,252.955 104.061 C 253.976 104.061,254.928 103.947,255.072 103.809 C 255.936 102.978,273.994 102.980,274.866 103.811 C 275.010 103.948,275.653 104.061,276.295 104.061 C 276.937 104.061,277.539 104.184,277.632 104.336 C 277.726 104.487,278.169 104.611,278.616 104.611 C 279.063 104.611,279.644 104.723,279.907 104.860 C 280.170 104.996,280.943 105.258,281.624 105.442 C 282.843 105.770,283.830 106.125,284.661 106.535 C 284.894 106.650,285.481 106.831,285.966 106.937 C 286.451 107.044,286.919 107.245,287.006 107.385 C 287.092 107.525,287.455 107.639,287.812 107.639 C 288.169 107.639,288.502 107.736,288.552 107.855 C 288.603 107.973,289.821 108.656,291.259 109.372 C 294.541 111.005,296.051 111.848,296.169 112.113 C 296.219 112.226,296.488 112.319,296.765 112.319 C 297.043 112.319,297.311 112.426,297.362 112.557 C 297.412 112.688,299.126 113.882,301.170 115.211 C 303.214 116.539,304.948 117.708,305.024 117.808 C 305.100 117.908,305.595 118.287,306.125 118.651 C 306.655 119.015,307.151 119.381,307.226 119.465 C 307.302 119.549,307.860 119.984,308.465 120.432 C 309.071 120.880,309.707 121.375,309.878 121.532 C 310.050 121.689,310.726 122.251,311.381 122.780 C 312.036 123.310,313.111 124.209,313.770 124.776 C 314.987 125.825,316.030 126.087,316.507 125.465 C 317.064 124.739,316.797 34.086,316.236 33.229 L 315.748 32.485 199.752 32.485 C 103.389 32.485,83.705 32.547,83.452 32.852 M315.760 79.037 L 315.760 124.763 314.200 123.336 C 308.242 117.891,295.887 109.769,288.913 106.712 C 274.979 100.605,264.235 100.352,236.759 105.481 C 216.439 109.275,210.206 108.073,192.980 97.038 C 172.437 83.878,166.551 80.991,156.547 79.169 C 131.765 74.655,106.332 81.063,87.074 96.673 C 85.742 97.752,84.498 98.756,84.308 98.904 C 84.033 99.119,83.964 92.546,83.964 66.242 L 83.964 33.310 199.862 33.310 L 315.760 33.310 315.760 79.037 M130.764 98.881 C 125.878 99.148,122.612 99.577,118.513 100.487 C 117.756 100.655,116.672 100.860,116.105 100.941 C 115.537 101.023,115.072 101.201,115.072 101.337 C 115.072 101.472,114.708 101.583,114.263 101.583 C 113.817 101.583,113.376 101.707,113.283 101.858 C 113.189 102.010,112.686 102.134,112.165 102.134 C 111.644 102.134,111.218 102.257,111.218 102.409 C 111.218 102.560,110.907 102.684,110.526 102.684 C 110.146 102.684,109.619 102.799,109.356 102.940 C 109.093 103.080,108.197 103.394,107.364 103.638 C 106.531 103.882,105.540 104.217,105.162 104.383 C 104.783 104.549,104.226 104.776,103.923 104.886 C 102.726 105.325,101.945 105.659,100.800 106.224 C 100.142 106.548,99.430 106.813,99.217 106.813 C 99.004 106.813,98.830 106.937,98.830 107.089 C 98.830 107.240,98.582 107.364,98.279 107.364 C 97.977 107.364,97.729 107.488,97.729 107.639 C 97.729 107.791,97.529 107.915,97.284 107.915 C 96.826 107.915,92.651 110.074,91.355 110.982 C 90.953 111.263,90.488 111.493,90.322 111.493 C 90.156 111.493,90.019 111.586,90.016 111.700 C 90.014 111.813,89.270 112.274,88.364 112.723 C 87.458 113.172,86.717 113.636,86.717 113.755 C 86.717 113.874,86.555 113.971,86.356 113.971 C 86.158 113.971,85.729 114.219,85.404 114.522 C 85.079 114.825,84.741 115.072,84.652 115.072 C 84.563 115.072,84.195 115.351,83.833 115.692 L 83.175 116.311 83.132 137.509 C 83.108 149.167,83.100 158.909,83.113 159.158 C 83.140 159.639,84.227 160.042,84.837 159.798 C 85.038 159.717,85.946 158.714,86.855 157.569 C 89.120 154.714,95.088 148.759,97.028 147.419 C 97.905 146.813,98.784 146.163,98.982 145.974 C 99.180 145.785,99.421 145.630,99.518 145.630 C 99.615 145.630,100.212 145.274,100.845 144.838 C 101.968 144.066,104.951 142.501,106.745 141.744 C 107.237 141.536,107.639 141.272,107.639 141.158 C 107.639 141.043,107.827 140.950,108.056 140.950 C 108.285 140.950,108.688 140.840,108.951 140.707 C 109.853 140.247,110.808 139.903,112.457 139.441 C 113.365 139.187,114.418 138.878,114.797 138.755 C 115.175 138.632,116.167 138.398,116.999 138.236 C 117.832 138.073,118.885 137.863,119.339 137.770 C 123.314 136.949,133.186 136.888,133.677 137.682 C 133.758 137.814,134.089 137.922,134.412 137.922 C 135.069 137.922,139.446 139.185,140.189 139.589 C 140.452 139.732,140.909 139.849,141.205 139.849 C 141.501 139.849,141.820 139.972,141.913 140.124 C 142.007 140.275,142.324 140.399,142.618 140.399 C 142.912 140.399,143.152 140.523,143.152 140.674 C 143.152 140.826,143.393 140.950,143.686 140.950 C 143.980 140.950,144.297 141.074,144.391 141.225 C 144.484 141.376,144.802 141.500,145.095 141.500 C 145.389 141.500,145.630 141.624,145.630 141.776 C 145.630 141.927,145.804 142.051,146.017 142.051 C 146.229 142.051,146.880 142.286,147.462 142.574 C 148.714 143.194,154.430 145.912,156.779 147.005 C 159.503 148.272,160.426 148.658,160.735 148.658 C 160.897 148.658,161.470 148.906,162.010 149.209 C 162.549 149.511,163.289 149.759,163.654 149.759 C 164.019 149.759,164.394 149.883,164.487 150.034 C 164.581 150.186,164.997 150.310,165.412 150.310 C 165.827 150.310,166.284 150.421,166.428 150.557 C 167.629 151.691,177.856 151.847,185.685 150.851 C 186.896 150.696,188.568 150.506,189.401 150.428 C 190.234 150.349,191.163 150.173,191.466 150.036 C 191.769 149.900,192.574 149.727,193.255 149.652 C 193.937 149.577,195.114 149.397,195.871 149.252 C 196.628 149.106,198.052 148.847,199.036 148.676 C 200.021 148.504,201.198 148.258,201.652 148.129 C 202.106 148.001,203.221 147.737,204.129 147.544 C 205.038 147.351,205.899 147.089,206.043 146.962 C 206.187 146.835,206.706 146.731,207.196 146.731 C 207.687 146.731,208.165 146.607,208.259 146.456 C 208.352 146.304,208.786 146.180,209.222 146.180 C 209.659 146.180,210.092 146.056,210.186 145.905 C 210.279 145.754,210.775 145.630,211.287 145.630 C 211.799 145.630,212.295 145.506,212.388 145.354 C 212.482 145.203,212.853 145.079,213.214 145.079 C 213.575 145.079,213.938 144.969,214.021 144.834 C 214.104 144.700,214.576 144.530,215.070 144.457 C 215.563 144.385,217.330 143.989,218.995 143.579 C 222.888 142.620,224.246 142.325,225.602 142.143 C 226.208 142.061,226.821 141.883,226.965 141.747 C 227.109 141.612,227.876 141.500,228.669 141.500 C 229.463 141.500,230.189 141.376,230.282 141.225 C 230.376 141.074,231.119 140.950,231.934 140.950 C 232.749 140.950,233.492 140.826,233.586 140.674 C 233.679 140.523,234.732 140.399,235.926 140.399 C 237.119 140.399,238.172 140.275,238.266 140.124 C 238.485 139.769,253.882 139.749,254.246 140.102 C 254.390 140.242,255.375 140.417,256.435 140.491 C 257.495 140.566,259.043 140.768,259.876 140.940 C 260.709 141.112,261.856 141.322,262.424 141.406 C 262.993 141.490,263.527 141.669,263.611 141.805 C 263.694 141.940,264.129 142.051,264.576 142.051 C 265.023 142.051,265.605 142.162,265.867 142.298 C 266.130 142.434,267.806 143.011,269.591 143.581 C 271.376 144.151,272.901 144.721,272.980 144.848 C 273.058 144.975,273.425 145.079,273.795 145.079 C 274.164 145.079,274.467 145.203,274.467 145.354 C 274.467 145.506,274.641 145.630,274.854 145.630 C 275.066 145.630,275.717 145.868,276.299 146.160 C 276.881 146.451,278.472 147.239,279.835 147.910 C 281.198 148.581,282.777 149.396,283.345 149.720 C 288.315 152.560,289.697 153.397,291.776 154.829 C 292.892 155.599,294.007 156.353,294.253 156.504 C 295.206 157.092,298.295 159.241,298.583 159.517 C 298.750 159.677,299.593 160.303,300.457 160.908 C 301.772 161.830,303.967 163.486,305.855 164.982 C 306.086 165.164,306.767 165.678,307.370 166.124 C 307.972 166.571,308.527 167.010,308.603 167.101 C 308.679 167.192,309.174 167.568,309.704 167.936 C 310.234 168.304,310.931 168.855,311.252 169.161 C 312.799 170.634,314.727 172.000,315.348 172.064 C 316.995 172.235,316.862 173.811,316.862 154.195 L 316.862 136.333 316.183 135.889 C 315.810 135.644,315.191 135.444,314.807 135.444 C 314.423 135.444,314.109 135.320,314.109 135.169 C 314.109 135.017,313.868 134.893,313.574 134.893 C 313.281 134.893,312.964 134.769,312.870 134.618 C 312.776 134.467,312.459 134.343,312.165 134.343 C 311.872 134.343,311.631 134.219,311.631 134.067 C 311.631 133.916,311.444 133.792,311.214 133.792 C 310.985 133.792,310.583 133.670,310.320 133.521 C 309.476 133.043,306.308 131.676,304.818 131.148 C 304.023 130.865,303.372 130.540,303.372 130.424 C 303.372 130.308,303.204 130.213,302.998 130.213 C 302.792 130.213,301.894 129.854,301.002 129.415 C 300.110 128.976,298.940 128.424,298.402 128.189 C 297.864 127.954,296.583 127.384,295.555 126.923 C 294.527 126.461,293.511 126.084,293.298 126.084 C 293.085 126.084,292.911 125.960,292.911 125.809 C 292.911 125.657,292.724 125.533,292.495 125.533 C 292.265 125.533,291.863 125.424,291.600 125.290 C 291.337 125.156,290.781 124.909,290.365 124.740 C 289.948 124.571,289.329 124.316,288.988 124.175 C 288.447 123.950,286.874 123.428,283.964 122.507 C 282.460 122.031,278.754 121.404,277.442 121.404 C 276.732 121.404,276.074 121.280,275.981 121.129 C 275.878 120.963,273.964 120.853,271.163 120.853 C 268.362 120.853,266.448 120.963,266.345 121.129 C 266.252 121.280,265.470 121.404,264.609 121.405 C 263.747 121.405,261.803 121.663,260.289 121.977 C 258.775 122.291,257.194 122.615,256.776 122.696 C 256.357 122.777,255.948 122.954,255.865 123.087 C 255.782 123.221,255.419 123.331,255.058 123.331 C 254.698 123.331,254.326 123.455,254.233 123.606 C 254.139 123.758,253.705 123.882,253.269 123.882 C 252.833 123.882,252.399 124.006,252.306 124.157 C 252.212 124.308,251.771 124.432,251.326 124.432 C 250.881 124.432,250.516 124.556,250.516 124.708 C 250.516 124.859,250.145 124.983,249.690 124.983 C 249.236 124.983,248.864 125.107,248.864 125.258 C 248.864 125.409,248.438 125.533,247.917 125.533 C 247.396 125.533,246.893 125.657,246.800 125.809 C 246.706 125.960,246.317 126.084,245.934 126.084 C 245.122 126.084,241.787 126.865,241.091 127.218 C 240.828 127.351,240.265 127.460,239.839 127.460 C 239.413 127.460,238.946 127.572,238.802 127.708 C 238.560 127.937,238.002 128.044,234.893 128.460 C 234.250 128.547,233.723 128.728,233.723 128.865 C 233.723 129.001,233.111 129.112,232.363 129.112 C 231.615 129.112,230.926 129.236,230.833 129.387 C 230.739 129.539,229.872 129.663,228.906 129.663 C 227.939 129.663,227.072 129.787,226.979 129.938 C 226.872 130.111,223.907 130.213,218.995 130.213 C 214.083 130.213,211.119 130.111,211.012 129.938 C 210.918 129.787,210.168 129.663,209.344 129.663 C 208.520 129.663,207.846 129.539,207.846 129.387 C 207.846 129.236,207.358 129.112,206.761 129.112 C 206.164 129.112,205.599 128.988,205.506 128.837 C 205.412 128.685,205.032 128.562,204.660 128.562 C 204.288 128.562,203.769 128.453,203.506 128.321 C 202.911 128.020,198.019 126.350,197.178 126.160 C 196.838 126.083,196.559 125.910,196.559 125.777 C 196.559 125.643,196.280 125.531,195.939 125.527 C 195.599 125.524,195.010 125.279,194.632 124.983 C 194.253 124.687,193.802 124.442,193.629 124.438 C 193.456 124.435,191.969 123.729,190.326 122.869 C 188.682 122.009,187.059 121.173,186.719 121.011 C 186.380 120.849,186.101 120.623,186.100 120.509 C 186.099 120.396,185.907 120.303,185.673 120.303 C 185.440 120.303,185.004 120.075,184.705 119.796 C 184.406 119.518,183.823 119.118,183.409 118.908 C 182.995 118.698,181.443 117.749,179.960 116.799 C 178.477 115.849,177.202 115.072,177.127 115.072 C 177.052 115.072,176.724 114.825,176.399 114.522 C 176.074 114.219,175.646 113.971,175.447 113.971 C 175.248 113.971,175.086 113.878,175.085 113.765 C 175.085 113.651,174.280 113.067,173.296 112.466 C 172.312 111.865,171.507 111.276,171.507 111.158 C 171.507 111.040,171.321 110.943,171.094 110.943 C 170.867 110.943,170.681 110.819,170.681 110.668 C 170.681 110.516,170.496 110.392,170.268 110.392 C 170.041 110.392,169.855 110.268,169.855 110.117 C 169.855 109.966,169.680 109.842,169.465 109.842 C 169.251 109.842,169.034 109.737,168.984 109.610 C 168.861 109.301,163.626 105.925,162.491 105.423 C 161.999 105.205,161.597 104.934,161.597 104.819 C 161.597 104.705,161.442 104.611,161.253 104.610 C 161.063 104.609,160.299 104.300,159.554 103.922 C 158.809 103.544,157.980 103.235,157.712 103.235 C 157.444 103.235,157.148 103.111,157.054 102.959 C 156.961 102.808,156.644 102.684,156.350 102.684 C 156.056 102.684,155.816 102.560,155.816 102.409 C 155.816 102.257,155.513 102.134,155.144 102.134 C 154.774 102.134,154.395 102.010,154.301 101.858 C 154.208 101.707,153.836 101.583,153.476 101.583 C 153.115 101.583,152.743 101.459,152.650 101.308 C 152.556 101.156,152.184 101.032,151.824 101.032 C 151.463 101.032,151.092 100.908,150.998 100.757 C 150.904 100.606,150.409 100.482,149.897 100.482 C 149.385 100.482,148.897 100.371,148.814 100.236 C 148.730 100.100,148.196 99.926,147.627 99.848 C 139.543 98.745,136.467 98.569,130.764 98.881 M144.391 100.318 C 153.566 101.980,159.709 104.488,167.450 109.731 C 202.490 133.465,214.999 135.805,251.067 125.373 C 262.077 122.188,264.828 121.679,271.030 121.679 C 280.032 121.679,286.259 123.428,299.931 129.798 C 304.240 131.805,310.158 134.408,312.870 135.490 C 314.384 136.093,315.717 136.678,315.831 136.788 C 315.946 136.899,316.008 144.703,315.969 154.130 L 315.898 171.270 312.044 168.177 C 273.956 137.609,252.355 132.472,211.484 144.263 C 194.763 149.086,177.553 151.409,169.443 149.937 C 164.613 149.061,161.748 148.004,153.917 144.211 C 139.769 137.358,133.494 135.486,125.809 135.825 C 111.298 136.464,98.063 142.713,88.864 153.269 C 87.456 154.884,85.781 156.768,85.141 157.456 L 83.977 158.706 83.971 137.636 L 83.964 116.566 87.835 114.157 C 106.251 102.691,128.048 97.358,144.391 100.318 M118.651 155.014 C 115.443 155.361,114.256 155.577,114.091 155.845 C 114.007 155.980,113.635 156.091,113.263 156.091 C 112.891 156.091,112.372 156.200,112.109 156.334 C 111.846 156.468,111.259 156.730,110.805 156.917 C 110.351 157.103,109.764 157.366,109.501 157.499 C 109.238 157.633,108.836 157.743,108.607 157.743 C 108.377 157.743,108.190 157.866,108.190 158.018 C 108.190 158.169,107.990 158.293,107.745 158.293 C 107.287 158.293,103.112 160.453,101.816 161.360 C 101.414 161.642,100.949 161.872,100.783 161.872 C 100.617 161.872,100.482 161.975,100.482 162.101 C 100.482 162.227,100.142 162.505,99.726 162.720 C 98.676 163.263,95.409 165.525,95.297 165.786 C 95.247 165.905,95.030 166.001,94.815 166.001 C 94.601 166.001,94.425 166.125,94.425 166.277 C 94.425 166.428,94.297 166.552,94.140 166.552 C 93.983 166.552,93.581 166.803,93.245 167.109 C 92.910 167.416,91.974 168.108,91.165 168.646 C 90.355 169.184,89.315 169.987,88.853 170.428 C 88.390 170.870,87.872 171.232,87.701 171.232 C 87.529 171.232,87.211 171.480,86.992 171.783 C 86.774 172.085,86.467 172.333,86.309 172.333 C 86.152 172.333,85.715 172.613,85.338 172.955 C 84.961 173.297,84.304 173.800,83.878 174.074 L 83.104 174.570 83.254 189.625 C 83.337 197.905,83.520 206.724,83.662 209.222 C 83.804 211.721,84.046 216.056,84.199 218.858 C 84.755 229.012,85.487 233.629,87.067 236.958 C 87.383 237.623,88.979 237.831,89.956 237.334 C 90.393 237.112,90.727 236.970,92.567 236.226 C 93.174 235.980,95.125 235.146,96.765 234.430 C 97.220 234.232,98.396 233.695,99.381 233.238 C 100.365 232.781,101.913 232.068,102.822 231.654 C 106.446 230.002,111.361 227.541,111.448 227.335 C 111.498 227.215,111.777 227.116,112.067 227.116 C 112.357 227.116,112.595 226.992,112.595 226.841 C 112.595 226.690,112.769 226.566,112.981 226.566 C 113.194 226.566,114.093 226.156,114.980 225.655 C 115.866 225.154,116.993 224.566,117.484 224.349 C 117.974 224.131,118.376 223.860,118.376 223.746 C 118.376 223.631,118.624 223.538,118.926 223.538 C 119.229 223.538,119.477 223.414,119.477 223.262 C 119.477 223.111,119.652 222.987,119.867 222.987 C 120.081 222.987,120.298 222.894,120.349 222.780 C 120.399 222.667,121.370 222.089,122.505 221.496 C 125.310 220.031,126.471 219.377,126.635 219.170 C 126.710 219.074,127.068 218.829,127.429 218.625 C 127.791 218.422,128.534 218.004,129.081 217.698 C 129.628 217.391,130.881 216.628,131.865 216.002 C 132.849 215.376,133.993 214.689,134.407 214.476 C 134.821 214.264,135.404 213.862,135.703 213.583 C 136.002 213.304,136.318 213.076,136.405 213.076 C 136.643 213.076,140.675 210.193,141.776 209.236 C 142.306 208.775,142.831 208.397,142.943 208.397 C 143.055 208.397,144.016 207.839,145.079 207.158 C 146.142 206.476,147.124 205.919,147.261 205.919 C 147.399 205.919,147.552 205.826,147.603 205.712 C 147.768 205.340,155.796 201.206,157.880 200.419 C 158.183 200.305,158.741 200.081,159.119 199.921 C 160.118 199.500,163.481 198.310,164.763 197.924 C 165.368 197.742,166.079 197.484,166.342 197.351 C 166.605 197.218,167.124 197.109,167.496 197.109 C 167.867 197.109,168.248 196.986,168.341 196.834 C 168.435 196.683,168.930 196.559,169.443 196.559 C 169.955 196.559,170.450 196.435,170.544 196.284 C 170.637 196.132,171.115 196.008,171.606 196.008 C 172.097 196.008,172.616 195.897,172.760 195.761 C 172.904 195.625,173.517 195.445,174.123 195.360 C 179.995 194.541,182.339 194.332,187.337 194.185 C 191.088 194.075,194.181 194.130,196.146 194.342 C 197.811 194.522,200.200 194.740,201.453 194.827 C 202.707 194.914,203.798 195.092,203.878 195.222 C 203.959 195.351,204.505 195.458,205.093 195.458 C 205.681 195.458,206.238 195.582,206.332 195.733 C 206.425 195.884,206.921 196.008,207.433 196.008 C 207.945 196.008,208.440 196.132,208.534 196.284 C 208.628 196.435,209.123 196.559,209.635 196.559 C 210.147 196.559,210.643 196.683,210.736 196.834 C 210.830 196.986,211.264 197.109,211.700 197.109 C 212.136 197.109,212.570 197.233,212.663 197.385 C 212.757 197.536,213.129 197.660,213.489 197.660 C 213.850 197.660,214.222 197.784,214.315 197.935 C 214.409 198.087,214.692 198.211,214.945 198.211 C 215.198 198.211,216.274 198.530,217.338 198.921 C 220.937 200.244,221.683 200.557,226.025 202.568 C 227.015 203.026,228.162 203.486,228.574 203.589 C 228.986 203.693,229.392 203.888,229.475 204.022 C 229.558 204.157,229.867 204.267,230.161 204.267 C 230.455 204.267,230.695 204.391,230.695 204.542 C 230.695 204.694,230.877 204.818,231.100 204.818 C 231.322 204.818,231.945 205.065,232.485 205.368 C 233.024 205.671,233.647 205.919,233.869 205.919 C 234.092 205.919,234.274 206.043,234.274 206.194 C 234.274 206.345,234.511 206.469,234.802 206.469 C 235.092 206.469,235.370 206.562,235.421 206.676 C 235.550 206.967,238.606 208.396,239.098 208.396 C 239.321 208.396,239.504 208.520,239.504 208.672 C 239.504 208.823,239.742 208.947,240.032 208.947 C 240.322 208.947,240.601 209.040,240.652 209.153 C 240.788 209.460,247.985 213.076,248.458 213.076 C 248.682 213.076,248.864 213.177,248.864 213.301 C 248.864 213.424,249.391 213.812,250.034 214.163 C 253.264 215.926,254.346 216.510,255.609 217.170 C 256.366 217.565,257.027 217.983,257.077 218.098 C 257.128 218.213,257.407 218.307,257.697 218.307 C 257.987 218.307,258.224 218.408,258.224 218.531 C 258.224 218.773,259.043 219.247,263.317 221.482 C 268.158 224.014,268.545 224.223,268.685 224.378 C 268.904 224.620,274.183 227.116,274.477 227.116 C 274.623 227.116,274.742 227.240,274.742 227.392 C 274.742 227.543,274.990 227.667,275.292 227.667 C 275.595 227.667,275.843 227.791,275.843 227.942 C 275.843 228.094,276.091 228.217,276.394 228.217 C 276.696 228.217,276.944 228.341,276.944 228.493 C 276.944 228.644,277.182 228.768,277.472 228.768 C 277.762 228.768,278.041 228.866,278.091 228.985 C 278.142 229.104,278.926 229.553,279.835 229.984 C 281.603 230.822,285.349 232.605,289.650 234.658 C 291.111 235.355,292.505 235.926,292.747 235.926 C 292.989 235.926,293.187 236.050,293.187 236.201 C 293.187 236.352,293.369 236.476,293.591 236.476 C 293.814 236.476,294.437 236.724,294.976 237.027 C 295.515 237.330,296.138 237.577,296.361 237.577 C 296.583 237.577,296.765 237.701,296.765 237.853 C 296.765 238.004,296.939 238.128,297.152 238.128 C 297.365 238.128,298.015 238.373,298.598 238.672 C 300.303 239.547,302.859 240.606,303.269 240.606 C 303.477 240.606,303.648 240.730,303.648 240.881 C 303.648 241.032,303.888 241.156,304.182 241.156 C 304.476 241.156,304.793 241.280,304.886 241.432 C 304.980 241.583,305.297 241.707,305.591 241.707 C 305.885 241.707,306.125 241.831,306.125 241.982 C 306.125 242.134,306.366 242.257,306.660 242.257 C 306.953 242.257,307.270 242.381,307.364 242.533 C 307.971 243.515,310.497 242.359,310.521 241.087 C 310.526 240.822,310.654 240.606,310.805 240.606 C 310.957 240.606,311.081 240.358,311.081 240.055 C 311.081 239.752,311.204 239.504,311.356 239.504 C 311.507 239.504,311.631 239.342,311.631 239.143 C 311.631 238.945,311.879 238.269,312.182 237.642 C 312.485 237.016,312.732 236.336,312.732 236.132 C 312.732 235.928,312.837 235.643,312.964 235.499 C 313.616 234.763,315.760 225.722,315.760 223.709 C 315.760 223.221,315.877 222.704,316.018 222.560 C 316.566 222.005,317.072 185.899,316.550 184.622 C 316.148 183.639,315.662 183.070,315.226 183.070 C 315.062 183.070,314.712 182.947,314.449 182.798 C 313.523 182.272,310.732 181.142,310.358 181.142 C 310.150 181.142,309.979 181.019,309.979 180.867 C 309.979 180.716,309.732 180.592,309.429 180.592 C 309.126 180.592,308.878 180.498,308.878 180.384 C 308.878 180.269,308.476 180.009,307.983 179.806 C 307.491 179.602,303.310 177.577,298.692 175.306 C 288.888 170.484,285.210 168.714,283.689 168.083 C 283.083 167.832,282.373 167.509,282.110 167.365 C 281.847 167.220,281.444 167.103,281.215 167.103 C 280.986 167.103,280.798 166.979,280.798 166.827 C 280.798 166.676,280.611 166.552,280.382 166.552 C 280.153 166.552,279.750 166.443,279.487 166.309 C 279.224 166.175,278.699 165.944,278.321 165.795 C 277.617 165.518,276.602 165.103,275.499 164.640 C 273.763 163.912,270.778 162.973,270.199 162.973 C 269.839 162.973,269.467 162.849,269.374 162.698 C 269.280 162.546,268.847 162.423,268.410 162.423 C 267.974 162.423,267.540 162.299,267.447 162.147 C 267.353 161.996,266.858 161.872,266.345 161.872 C 265.833 161.872,265.338 161.748,265.244 161.597 C 265.151 161.445,264.487 161.321,263.769 161.321 C 263.051 161.321,262.346 161.211,262.202 161.075 C 261.485 160.399,249.192 160.158,244.597 160.730 C 243.235 160.900,241.438 161.114,240.606 161.205 C 239.773 161.297,238.974 161.485,238.830 161.622 C 238.686 161.760,237.919 161.872,237.126 161.872 C 236.332 161.872,235.606 161.996,235.513 162.147 C 235.419 162.299,234.854 162.423,234.258 162.423 C 233.661 162.423,233.173 162.546,233.173 162.698 C 233.173 162.849,232.778 162.973,232.296 162.973 C 231.186 162.973,226.500 164.049,225.052 164.636 C 224.463 164.874,223.401 165.124,221.952 165.363 C 221.459 165.445,220.987 165.622,220.903 165.757 C 220.820 165.891,220.388 166.001,219.942 166.001 C 219.497 166.001,219.133 166.125,219.133 166.277 C 219.133 166.428,218.768 166.552,218.323 166.552 C 217.878 166.552,217.445 166.662,217.362 166.797 C 217.279 166.932,216.807 167.107,216.314 167.187 C 215.820 167.268,214.611 167.538,213.627 167.788 C 212.643 168.038,211.495 168.310,211.077 168.393 C 210.659 168.475,210.249 168.652,210.166 168.786 C 210.083 168.920,209.659 169.030,209.222 169.030 C 208.786 169.030,208.352 169.153,208.259 169.305 C 208.165 169.456,207.732 169.580,207.295 169.580 C 206.859 169.580,206.425 169.704,206.332 169.855 C 206.238 170.007,205.805 170.131,205.368 170.131 C 204.932 170.131,204.498 170.255,204.405 170.406 C 204.311 170.557,203.816 170.681,203.304 170.681 C 202.791 170.681,202.296 170.805,202.202 170.957 C 202.109 171.108,201.544 171.232,200.947 171.232 C 200.351 171.232,199.862 171.338,199.862 171.469 C 199.862 171.599,199.212 171.781,198.417 171.873 C 197.622 171.966,195.981 172.237,194.769 172.477 C 186.099 174.190,177.568 174.513,169.993 173.414 C 166.419 172.896,161.292 171.794,160.922 171.465 C 160.778 171.337,160.383 171.232,160.044 171.232 C 159.704 171.232,159.350 171.108,159.257 170.957 C 159.163 170.805,158.844 170.681,158.548 170.681 C 158.253 170.681,157.795 170.572,157.532 170.438 C 157.054 170.195,156.739 170.060,154.456 169.120 C 153.784 168.843,152.731 168.333,152.116 167.986 C 151.501 167.639,150.781 167.284,150.516 167.197 C 150.251 167.110,150.034 166.929,150.034 166.795 C 150.034 166.661,149.849 166.552,149.621 166.552 C 149.394 166.552,149.209 166.428,149.209 166.277 C 149.209 166.125,149.082 166.001,148.928 166.001 C 148.774 166.001,147.876 165.537,146.932 164.969 C 145.989 164.401,144.473 163.569,143.565 163.120 C 142.657 162.670,141.872 162.206,141.822 162.087 C 141.771 161.969,141.503 161.872,141.225 161.872 C 140.947 161.872,140.679 161.773,140.629 161.651 C 140.578 161.529,139.050 160.719,137.233 159.850 C 135.416 158.980,133.715 158.151,133.452 158.006 C 133.189 157.861,132.786 157.743,132.557 157.743 C 132.328 157.743,132.140 157.619,132.140 157.467 C 132.140 157.316,131.966 157.192,131.753 157.192 C 131.541 157.192,130.828 156.927,130.171 156.602 C 126.960 155.020,123.284 154.513,118.651 155.014 M128.975 157.173 C 135.706 160.054,142.516 163.553,149.456 167.697 C 165.195 177.096,183.323 177.271,215.003 168.326 C 253.555 157.442,261.086 158.023,294.701 174.473 C 301.363 177.733,308.796 181.294,311.218 182.386 L 315.623 184.372 315.607 202.097 C 315.590 221.597,315.722 219.673,313.798 228.439 C 312.851 232.754,309.498 241.707,308.829 241.707 C 308.709 241.707,306.843 240.953,304.684 240.031 C 289.534 233.564,269.914 223.923,257.398 216.795 C 243.963 209.144,225.459 200.414,215.967 197.248 C 194.530 190.097,171.266 191.904,150.998 202.295 C 147.757 203.956,145.560 205.351,135.857 211.907 C 125.127 219.156,108.892 227.779,94.012 234.133 C 87.855 236.762,88.159 236.684,87.797 235.738 C 85.499 229.739,83.960 209.549,83.971 185.547 L 83.976 175.224 90.508 170.372 C 106.425 158.552,112.588 155.731,122.092 155.915 L 126.222 155.995 128.975 157.173 M179.904 217.206 C 179.810 217.357,179.005 217.481,178.114 217.481 C 177.224 217.481,176.429 217.587,176.349 217.718 C 176.268 217.848,175.521 218.034,174.688 218.132 C 173.856 218.230,172.459 218.509,171.584 218.752 C 170.709 218.996,169.651 219.257,169.233 219.333 C 168.814 219.409,168.405 219.581,168.322 219.715 C 168.239 219.849,167.807 219.959,167.362 219.959 C 166.916 219.959,166.552 220.083,166.552 220.234 C 166.552 220.385,166.180 220.509,165.726 220.509 C 165.272 220.509,164.900 220.633,164.900 220.785 C 164.900 220.936,164.651 221.060,164.346 221.060 C 164.041 221.060,163.576 221.169,163.314 221.303 C 162.581 221.675,161.594 222.071,160.083 222.598 C 159.326 222.862,158.588 223.181,158.445 223.308 C 158.301 223.434,157.960 223.538,157.688 223.538 C 157.415 223.538,157.192 223.661,157.192 223.813 C 157.192 223.964,157.023 224.088,156.817 224.088 C 156.467 224.088,154.583 225.024,150.310 227.322 C 147.136 229.029,140.284 232.462,138.458 233.260 C 137.482 233.687,136.468 234.152,136.205 234.293 C 135.942 234.434,135.539 234.549,135.310 234.549 C 135.081 234.549,134.893 234.673,134.893 234.825 C 134.893 234.976,134.646 235.100,134.343 235.100 C 134.040 235.100,133.792 235.224,133.792 235.375 C 133.792 235.526,133.605 235.650,133.375 235.650 C 133.146 235.650,132.744 235.763,132.481 235.901 C 132.218 236.039,131.383 236.359,130.626 236.611 C 129.165 237.098,128.175 237.488,127.395 237.885 C 127.132 238.019,126.790 238.128,126.635 238.128 C 126.364 238.128,124.257 239.003,123.266 239.527 C 123.003 239.666,122.546 239.780,122.250 239.780 C 121.954 239.780,121.635 239.904,121.542 240.055 C 121.448 240.206,121.076 240.330,120.716 240.330 C 120.355 240.330,119.983 240.454,119.890 240.606 C 119.796 240.757,119.484 240.881,119.195 240.881 C 118.906 240.881,118.139 241.049,117.491 241.254 C 116.842 241.459,115.754 241.784,115.072 241.975 C 114.391 242.166,113.648 242.390,113.421 242.472 C 112.328 242.869,109.331 243.700,108.532 243.827 C 108.038 243.906,107.566 244.080,107.483 244.215 C 107.400 244.350,106.913 244.460,106.401 244.460 C 105.888 244.460,105.393 244.584,105.299 244.735 C 105.206 244.886,104.867 245.010,104.546 245.010 C 104.225 245.010,103.582 245.126,103.117 245.268 C 102.349 245.501,97.291 246.467,94.566 246.900 C 93.141 247.127,92.020 249.966,93.356 249.966 C 93.490 249.966,93.599 250.088,93.599 250.238 C 93.599 250.518,96.008 254.398,96.335 254.646 C 96.435 254.721,96.816 255.217,97.182 255.747 C 97.549 256.277,97.976 256.848,98.133 257.016 C 98.289 257.184,98.789 257.801,99.243 258.387 C 100.047 259.424,102.354 262.212,103.771 263.859 C 105.193 265.513,114.702 274.917,116.030 275.982 C 116.783 276.587,117.786 277.454,118.257 277.908 C 119.498 279.104,120.566 280.011,121.817 280.932 C 122.423 281.378,123.363 282.119,123.907 282.578 C 125.391 283.831,125.817 284.165,128.180 285.924 C 129.374 286.813,130.413 287.609,130.489 287.692 C 130.564 287.776,131.060 288.143,131.590 288.507 C 132.120 288.870,132.615 289.251,132.691 289.351 C 132.767 289.452,133.571 290.007,134.477 290.585 C 135.384 291.163,136.367 291.861,136.663 292.136 C 136.958 292.411,137.299 292.636,137.420 292.636 C 137.616 292.636,138.182 293.048,139.122 293.875 C 139.748 294.426,141.771 295.664,142.045 295.664 C 142.200 295.664,142.326 295.788,142.326 295.939 C 142.326 296.091,142.455 296.215,142.613 296.215 C 142.771 296.215,143.145 296.443,143.444 296.721 C 143.743 297.000,144.760 297.689,145.703 298.252 C 146.647 298.816,148.206 299.765,149.167 300.361 C 150.129 300.957,150.970 301.445,151.037 301.445 C 151.104 301.445,151.425 301.693,151.750 301.996 C 152.075 302.299,152.503 302.546,152.702 302.546 C 152.900 302.546,153.063 302.656,153.063 302.790 C 153.063 302.923,153.279 303.107,153.544 303.197 C 153.809 303.288,154.769 303.802,155.678 304.341 C 156.586 304.880,157.546 305.392,157.811 305.480 C 158.076 305.567,158.293 305.748,158.293 305.882 C 158.293 306.016,158.479 306.125,158.706 306.125 C 158.933 306.125,159.120 306.218,159.121 306.332 C 159.122 306.445,159.401 306.673,159.741 306.838 C 161.616 307.748,167.448 310.875,167.653 311.081 C 167.729 311.157,168.162 311.400,168.617 311.622 C 169.071 311.843,169.752 312.221,170.131 312.462 C 170.509 312.703,171.376 313.137,172.058 313.428 C 172.739 313.718,173.359 314.022,173.434 314.102 C 173.739 314.425,182.021 318.513,182.371 318.513 C 182.579 318.513,182.790 318.606,182.840 318.720 C 182.891 318.833,183.489 319.193,184.171 319.519 C 184.852 319.845,186.856 320.805,188.624 321.652 C 190.392 322.500,192.034 323.193,192.272 323.193 C 192.510 323.193,192.705 323.317,192.705 323.469 C 192.705 323.620,192.945 323.744,193.239 323.744 C 193.533 323.744,193.850 323.868,193.944 324.019 C 194.037 324.171,194.354 324.295,194.648 324.295 C 194.942 324.295,195.182 324.418,195.182 324.570 C 195.182 324.721,195.430 324.845,195.733 324.845 C 196.036 324.845,196.284 324.969,196.284 325.120 C 196.284 325.272,196.446 325.396,196.645 325.396 C 196.843 325.396,197.519 325.643,198.146 325.946 C 199.862 326.776,200.404 326.661,204.776 324.542 C 206.994 323.467,209.986 322.016,211.425 321.317 C 212.863 320.618,214.081 319.949,214.132 319.830 C 214.182 319.712,214.461 319.615,214.751 319.615 C 215.041 319.615,215.279 319.491,215.279 319.339 C 215.279 319.188,215.516 319.064,215.806 319.064 C 216.097 319.064,216.375 318.971,216.426 318.858 C 216.476 318.744,218.314 317.747,220.509 316.641 C 224.551 314.606,227.870 312.865,230.166 311.576 C 232.595 310.213,232.761 310.116,232.897 309.977 C 232.973 309.900,233.716 309.476,234.549 309.035 C 236.969 307.752,237.157 307.647,237.302 307.501 C 237.378 307.425,237.811 307.178,238.266 306.951 C 238.720 306.725,239.153 306.477,239.229 306.401 C 239.305 306.325,239.677 306.084,240.055 305.864 C 240.434 305.645,241.982 304.708,243.496 303.782 C 245.010 302.856,246.554 301.920,246.927 301.703 C 247.299 301.486,247.777 301.149,247.988 300.954 C 248.324 300.645,249.394 300.011,251.103 299.109 C 251.386 298.959,251.617 298.743,251.617 298.627 C 251.617 298.512,251.772 298.417,251.961 298.416 C 252.151 298.416,252.739 298.045,253.269 297.591 C 253.799 297.138,254.387 296.766,254.577 296.766 C 254.766 296.766,254.921 296.641,254.921 296.490 C 254.921 296.339,255.096 296.215,255.311 296.215 C 255.525 296.215,255.742 296.115,255.793 295.994 C 255.843 295.872,256.937 295.073,258.224 294.217 C 261.852 291.804,266.267 288.635,267.146 287.812 C 267.311 287.658,268.252 286.956,269.236 286.252 C 270.220 285.549,271.583 284.471,272.264 283.857 C 272.946 283.243,273.612 282.738,273.746 282.733 C 273.880 282.729,274.189 282.502,274.434 282.229 C 274.679 281.957,275.375 281.369,275.981 280.923 C 276.586 280.477,277.392 279.802,277.770 279.423 C 278.149 279.044,279.201 278.114,280.109 277.357 C 281.017 276.600,282.143 275.609,282.612 275.155 C 283.081 274.701,284.196 273.695,285.091 272.919 C 286.898 271.353,292.150 266.051,293.367 264.563 C 293.798 264.037,294.588 263.166,295.123 262.627 C 295.659 262.087,296.463 261.155,296.912 260.555 C 297.360 259.954,298.038 259.153,298.417 258.775 C 298.797 258.396,299.475 257.591,299.924 256.986 C 300.373 256.380,300.961 255.644,301.230 255.351 C 302.174 254.323,301.385 252.957,299.656 252.626 C 299.202 252.539,298.211 252.333,297.454 252.168 C 296.696 252.003,295.705 251.803,295.251 251.724 C 294.797 251.645,294.178 251.478,293.875 251.353 C 293.379 251.148,292.272 250.888,287.818 249.928 C 287.061 249.765,286.227 249.521,285.964 249.386 C 285.701 249.250,285.182 249.140,284.810 249.140 C 284.438 249.140,284.058 249.016,283.964 248.864 C 283.871 248.713,283.437 248.589,283.001 248.589 C 282.564 248.589,282.131 248.465,282.037 248.314 C 281.944 248.162,281.572 248.039,281.211 248.039 C 280.851 248.039,280.479 247.915,280.385 247.763 C 280.292 247.612,279.876 247.488,279.461 247.488 C 279.046 247.488,278.588 247.386,278.445 247.261 C 278.301 247.135,277.688 246.889,277.082 246.713 C 276.476 246.537,275.299 246.197,274.467 245.957 C 273.634 245.717,272.737 245.406,272.474 245.266 C 272.212 245.125,271.754 245.010,271.458 245.010 C 271.162 245.010,270.844 244.886,270.750 244.735 C 270.657 244.584,270.285 244.460,269.924 244.460 C 269.564 244.460,269.192 244.336,269.098 244.184 C 269.005 244.033,268.686 243.909,268.390 243.909 C 268.094 243.909,267.637 243.800,267.374 243.666 C 266.378 243.159,263.952 242.236,261.411 241.395 C 260.491 241.091,259.429 240.710,259.050 240.549 C 258.179 240.179,257.143 239.764,256.435 239.503 C 256.132 239.391,255.265 239.020,254.508 238.679 C 253.751 238.337,252.884 237.963,252.581 237.846 C 252.278 237.730,251.315 237.312,250.440 236.918 C 249.565 236.523,248.741 236.201,248.608 236.201 C 248.475 236.201,247.890 235.968,247.308 235.683 C 246.725 235.398,245.692 234.915,245.010 234.609 C 244.329 234.304,242.966 233.685,241.982 233.235 C 240.998 232.785,239.697 232.205,239.092 231.946 C 238.486 231.687,237.775 231.361,237.512 231.223 C 237.249 231.084,236.847 230.970,236.618 230.970 C 236.388 230.970,236.201 230.847,236.201 230.695 C 236.201 230.544,236.027 230.420,235.814 230.420 C 235.601 230.420,234.951 230.183,234.369 229.894 C 232.403 228.917,229.739 227.720,228.493 227.253 C 226.894 226.655,225.994 226.286,225.399 225.983 C 225.137 225.849,224.734 225.740,224.505 225.740 C 224.276 225.740,224.088 225.616,224.088 225.465 C 224.088 225.313,223.778 225.189,223.400 225.189 C 223.021 225.189,222.712 225.065,222.712 224.914 C 222.712 224.763,222.524 224.639,222.295 224.639 C 222.066 224.639,221.663 224.529,221.400 224.396 C 220.407 223.890,219.499 223.545,218.032 223.115 C 217.199 222.871,216.302 222.557,216.040 222.416 C 215.777 222.276,215.250 222.161,214.870 222.161 C 214.489 222.161,214.178 222.037,214.178 221.886 C 214.178 221.734,213.875 221.610,213.506 221.610 C 213.136 221.610,212.757 221.487,212.663 221.335 C 212.570 221.184,212.198 221.060,211.838 221.060 C 211.477 221.060,211.105 220.936,211.012 220.785 C 210.918 220.633,210.599 220.509,210.303 220.509 C 210.008 220.509,209.550 220.397,209.287 220.261 C 208.731 219.972,207.486 219.633,203.166 218.595 C 201.425 218.176,197.937 217.731,195.182 217.575 C 193.895 217.502,192.725 217.327,192.581 217.186 C 192.220 216.833,180.123 216.851,179.904 217.206 M193.295 218.043 C 205.790 219.299,216.451 222.787,238.954 232.979 C 262.190 243.503,277.662 248.805,298.783 253.480 L 300.939 253.958 299.900 255.334 C 282.802 277.975,242.955 306.230,202.858 324.148 L 199.935 325.454 196.060 323.776 C 160.298 308.287,125.778 285.758,106.852 265.554 C 101.852 260.216,93.040 248.656,93.635 248.213 C 93.691 248.171,96.293 247.618,99.417 246.984 C 116.562 243.506,137.114 236.032,150.034 228.578 C 164.663 220.137,179.116 216.618,193.295 218.043 M313.711 247.274 C 313.456 247.638,313.283 248.468,313.283 249.326 C 313.283 250.118,313.173 251.050,313.039 251.398 C 312.904 251.746,312.646 252.712,312.465 253.544 C 312.284 254.377,311.837 256.013,311.471 257.179 C 311.105 258.346,310.805 259.492,310.805 259.726 C 310.805 259.960,310.681 260.151,310.530 260.151 C 310.379 260.151,310.255 260.392,310.255 260.686 C 310.255 260.980,310.131 261.297,309.979 261.390 C 309.828 261.484,309.704 261.801,309.704 262.095 C 309.704 262.389,309.580 262.629,309.429 262.629 C 309.277 262.629,309.153 262.802,309.153 263.012 C 309.153 263.223,308.450 264.741,307.590 266.385 C 306.731 268.029,305.894 269.651,305.732 269.991 C 305.570 270.330,305.344 270.609,305.231 270.610 C 305.117 270.612,305.024 270.798,305.024 271.025 C 305.024 271.253,304.900 271.438,304.749 271.438 C 304.597 271.438,304.474 271.558,304.474 271.704 C 304.474 271.850,303.792 273.015,302.959 274.293 C 302.127 275.570,301.445 276.695,301.445 276.793 C 301.445 276.890,301.167 277.252,300.826 277.597 C 300.485 277.943,299.897 278.638,299.518 279.141 C 299.140 279.645,298.478 280.503,298.048 281.047 C 297.619 281.592,296.937 282.459,296.534 282.974 C 296.131 283.489,295.554 284.173,295.251 284.493 C 294.948 284.812,294.205 285.691,293.599 286.445 C 292.251 288.125,282.392 297.959,280.430 299.581 C 279.649 300.228,278.575 301.149,278.045 301.629 C 277.515 302.109,276.710 302.786,276.256 303.134 C 275.802 303.481,275.244 303.957,275.017 304.191 C 274.790 304.426,274.109 304.981,273.503 305.426 C 272.897 305.871,272.216 306.433,271.989 306.675 C 271.762 306.917,271.142 307.415,270.613 307.781 C 270.083 308.147,269.515 308.575,269.350 308.731 C 269.186 308.888,268.708 309.264,268.287 309.566 C 267.867 309.869,267.382 310.245,267.210 310.401 C 267.037 310.558,266.462 310.987,265.933 311.356 C 265.403 311.724,264.828 312.154,264.656 312.310 C 263.769 313.115,263.146 313.558,262.901 313.558 C 262.752 313.558,262.629 313.682,262.629 313.833 C 262.629 313.985,262.443 314.109,262.216 314.109 C 261.989 314.109,261.801 314.202,261.798 314.315 C 261.795 314.429,261.175 314.888,260.421 315.336 C 259.667 315.783,259.050 316.248,259.050 316.368 C 259.050 316.488,258.910 316.586,258.738 316.586 C 258.567 316.586,258.226 316.804,257.981 317.070 C 257.736 317.336,257.195 317.729,256.779 317.942 C 256.363 318.156,256.022 318.434,256.022 318.560 C 256.022 318.686,255.879 318.789,255.704 318.789 C 255.529 318.789,254.980 319.098,254.483 319.477 C 253.987 319.855,253.506 320.165,253.414 320.165 C 253.321 320.165,252.980 320.413,252.655 320.716 C 252.330 321.019,251.902 321.266,251.703 321.266 C 251.505 321.266,251.342 321.390,251.342 321.542 C 251.342 321.693,251.156 321.817,250.929 321.817 C 250.702 321.817,250.516 321.920,250.516 322.046 C 250.516 322.172,250.175 322.450,249.759 322.665 C 249.343 322.880,248.878 323.152,248.727 323.270 C 248.575 323.389,247.679 323.946,246.734 324.509 C 245.790 325.073,244.766 325.750,244.460 326.015 C 244.154 326.280,243.775 326.497,243.619 326.497 C 243.463 326.497,243.070 326.745,242.745 327.047 C 242.420 327.350,241.991 327.598,241.793 327.598 C 241.594 327.598,241.432 327.722,241.432 327.873 C 241.432 328.025,241.299 328.149,241.137 328.149 C 240.975 328.149,239.924 328.706,238.802 329.387 C 237.679 330.069,236.635 330.626,236.481 330.626 C 236.327 330.626,236.201 330.750,236.201 330.902 C 236.201 331.053,236.015 331.177,235.788 331.177 C 235.561 331.177,235.374 331.270,235.373 331.383 C 235.372 331.497,235.093 331.726,234.754 331.893 C 233.309 332.603,231.098 333.790,230.970 333.924 C 230.895 334.003,230.461 334.254,230.007 334.480 C 229.553 334.707,229.119 334.955,229.043 335.031 C 228.968 335.106,228.410 335.428,227.805 335.746 C 227.199 336.063,226.270 336.568,225.740 336.868 C 225.210 337.168,223.847 337.895,222.712 338.484 C 221.576 339.072,220.585 339.623,220.509 339.707 C 220.434 339.792,218.142 340.971,215.416 342.327 C 212.691 343.683,210.420 344.888,210.369 345.004 C 210.319 345.121,210.040 345.217,209.750 345.217 C 209.460 345.217,209.222 345.341,209.222 345.492 C 209.222 345.643,208.975 345.767,208.672 345.767 C 208.369 345.767,208.121 345.891,208.121 346.043 C 208.121 346.194,207.930 346.318,207.696 346.318 C 207.462 346.318,206.124 346.875,204.723 347.557 C 203.323 348.238,202.028 348.796,201.846 348.796 C 201.663 348.796,201.514 348.919,201.514 349.071 C 201.514 349.675,198.849 349.351,197.217 348.548 C 194.747 347.333,192.444 346.318,192.155 346.318 C 192.012 346.318,191.475 346.082,190.961 345.793 C 188.507 344.414,182.722 341.638,182.305 341.638 C 182.120 341.638,181.968 341.514,181.968 341.363 C 181.968 341.211,181.721 341.087,181.418 341.087 C 181.115 341.087,180.867 340.964,180.867 340.812 C 180.867 340.661,180.630 340.537,180.340 340.537 C 180.049 340.537,179.771 340.442,179.720 340.325 C 179.670 340.209,177.770 339.178,175.499 338.034 C 171.341 335.940,170.109 335.284,169.855 335.031 C 169.780 334.955,169.160 334.601,168.479 334.243 C 165.992 332.938,163.909 331.794,162.698 331.069 C 162.017 330.661,161.242 330.256,160.977 330.169 C 160.712 330.082,160.496 329.902,160.496 329.768 C 160.496 329.635,160.360 329.525,160.194 329.525 C 160.028 329.525,159.563 329.297,159.162 329.018 C 158.760 328.739,157.749 328.150,156.917 327.710 C 156.084 327.270,155.162 326.693,154.869 326.428 C 154.575 326.163,154.239 325.946,154.120 325.946 C 154.002 325.946,153.066 325.415,152.039 324.766 C 151.012 324.117,149.831 323.415,149.415 323.205 C 148.999 322.996,148.658 322.722,148.658 322.596 C 148.658 322.470,148.528 322.368,148.370 322.368 C 148.212 322.368,147.128 321.719,145.961 320.927 C 144.795 320.134,143.161 319.073,142.331 318.568 C 141.501 318.064,140.758 317.551,140.679 317.429 C 140.601 317.307,139.422 316.482,138.059 315.596 C 136.696 314.710,135.354 313.796,135.077 313.565 C 134.799 313.334,134.242 312.867,133.838 312.526 C 133.434 312.186,132.949 311.907,132.760 311.907 C 132.571 311.907,132.413 311.813,132.410 311.700 C 132.406 311.586,131.849 311.122,131.171 310.668 C 130.494 310.213,129.939 309.749,129.939 309.635 C 129.938 309.522,129.776 309.429,129.579 309.429 C 129.381 309.429,128.777 309.026,128.235 308.534 C 127.694 308.042,126.834 307.309,126.323 306.906 C 125.813 306.503,125.098 305.914,124.734 305.598 C 124.370 305.283,123.981 305.024,123.868 305.024 C 123.756 305.024,123.063 304.453,122.328 303.754 C 121.592 303.055,120.436 302.033,119.757 301.483 C 119.078 300.932,118.260 300.234,117.939 299.931 C 117.618 299.628,116.563 298.679,115.595 297.821 C 113.309 295.797,108.095 290.595,106.636 288.882 C 106.009 288.146,104.956 286.967,104.296 286.262 C 103.637 285.558,102.849 284.637,102.546 284.217 C 102.244 283.796,101.745 283.196,101.439 282.882 C 101.133 282.569,100.580 281.879,100.210 281.349 C 99.839 280.819,99.398 280.242,99.228 280.067 C 99.058 279.891,98.501 279.086,97.989 278.277 C 97.477 277.468,96.992 276.745,96.912 276.669 C 96.831 276.593,96.590 276.193,96.377 275.779 C 96.163 275.365,95.792 274.802,95.551 274.528 C 94.590 273.435,90.565 265.464,89.473 262.491 C 89.017 261.249,87.951 257.457,87.462 255.334 C 87.163 254.036,86.930 253.608,86.376 253.336 C 84.403 252.368,84.147 253.439,84.170 262.586 L 84.189 270.200 85.062 273.503 C 85.542 275.320,86.034 277.178,86.156 277.632 C 86.415 278.603,87.199 280.975,87.520 281.762 C 87.644 282.065,87.869 282.622,88.022 283.001 C 88.542 284.293,89.407 286.165,90.439 288.231 C 91.005 289.367,91.608 290.574,91.777 290.913 C 91.947 291.253,92.178 291.531,92.292 291.533 C 92.405 291.534,92.498 291.726,92.498 291.959 C 92.498 292.193,92.746 292.650,93.049 292.975 C 93.352 293.300,93.599 293.728,93.599 293.927 C 93.599 294.125,93.723 294.288,93.875 294.288 C 94.026 294.288,94.150 294.417,94.150 294.575 C 94.150 294.732,94.276 295.011,94.429 295.194 C 94.583 295.377,95.308 296.427,96.040 297.528 C 96.773 298.629,97.672 299.868,98.037 300.281 C 98.403 300.694,99.001 301.466,99.367 301.996 C 101.668 305.333,113.676 317.757,117.414 320.669 C 117.867 321.022,118.672 321.704,119.202 322.183 C 119.732 322.663,120.599 323.379,121.129 323.775 C 121.659 324.171,122.480 324.857,122.954 325.300 C 123.427 325.743,124.263 326.410,124.810 326.783 C 125.357 327.155,125.806 327.553,125.807 327.667 C 125.808 327.780,125.970 327.873,126.168 327.873 C 126.365 327.873,126.973 328.276,127.519 328.768 C 129.059 330.157,129.561 330.552,130.827 331.373 C 131.473 331.792,132.065 332.204,132.140 332.289 C 132.216 332.373,132.712 332.740,133.242 333.104 C 133.772 333.468,134.267 333.850,134.343 333.954 C 134.418 334.057,136.896 335.763,139.849 337.744 C 142.801 339.725,145.366 341.474,145.549 341.630 C 145.732 341.786,146.073 341.913,146.306 341.913 C 146.540 341.913,146.731 342.037,146.731 342.189 C 146.731 342.340,146.917 342.464,147.144 342.464 C 147.371 342.464,147.557 342.588,147.557 342.739 C 147.557 342.891,147.743 343.014,147.970 343.014 C 148.197 343.014,148.383 343.117,148.383 343.243 C 148.383 343.369,148.723 343.647,149.140 343.860 C 149.556 344.073,150.541 344.652,151.329 345.145 C 152.116 345.639,152.891 346.043,153.049 346.043 C 153.208 346.043,153.338 346.152,153.338 346.286 C 153.338 346.420,153.555 346.598,153.820 346.682 C 154.291 346.831,155.819 347.697,156.091 347.970 C 156.320 348.199,157.786 349.038,159.532 349.939 C 160.440 350.408,161.225 350.900,161.276 351.032 C 161.326 351.165,161.605 351.273,161.895 351.273 C 162.185 351.273,162.423 351.374,162.423 351.497 C 162.423 351.732,162.980 352.053,167.515 354.436 C 172.343 356.972,172.743 357.189,172.884 357.346 C 173.021 357.499,176.336 359.096,178.045 359.832 C 178.538 360.044,178.940 360.311,178.940 360.425 C 178.940 360.540,179.188 360.633,179.491 360.633 C 179.794 360.633,180.041 360.757,180.041 360.908 C 180.041 361.060,180.289 361.184,180.592 361.184 C 180.895 361.184,181.142 361.308,181.142 361.459 C 181.142 361.610,181.390 361.734,181.693 361.734 C 181.996 361.734,182.244 361.828,182.244 361.942 C 182.244 362.057,182.646 362.326,183.138 362.540 C 184.505 363.135,187.832 364.682,191.191 366.284 C 192.856 367.079,194.900 368.004,195.733 368.339 C 198.432 369.426,198.617 369.503,199.102 369.750 C 199.818 370.114,200.295 370.050,201.376 369.443 C 201.916 369.140,202.498 368.892,202.671 368.892 C 202.844 368.892,205.349 367.727,208.238 366.304 C 211.126 364.881,214.109 363.413,214.866 363.041 C 217.242 361.876,218.717 361.054,218.812 360.840 C 218.862 360.726,219.131 360.633,219.408 360.633 C 219.686 360.633,219.954 360.540,220.005 360.427 C 220.055 360.313,221.397 359.572,222.987 358.779 C 225.786 357.383,227.382 356.513,227.667 356.228 C 227.743 356.153,228.734 355.606,229.869 355.013 C 232.669 353.551,234.881 352.319,235.100 352.099 C 235.175 352.023,235.609 351.775,236.063 351.549 C 236.518 351.322,236.951 351.065,237.027 350.977 C 237.103 350.889,237.846 350.459,238.679 350.021 C 239.511 349.584,240.898 348.757,241.761 348.185 C 242.623 347.612,243.459 347.144,243.619 347.144 C 243.778 347.144,243.909 347.041,243.909 346.915 C 243.909 346.789,244.250 346.512,244.666 346.299 C 246.082 345.574,249.552 343.428,249.644 343.221 C 249.695 343.107,249.912 343.014,250.126 343.014 C 250.341 343.014,250.516 342.891,250.516 342.739 C 250.516 342.588,250.702 342.464,250.929 342.464 C 251.156 342.464,251.342 342.340,251.342 342.189 C 251.342 342.037,251.528 341.913,251.755 341.913 C 251.982 341.913,252.168 341.789,252.168 341.638 C 252.168 341.487,252.298 341.363,252.458 341.363 C 252.800 341.363,256.474 338.997,257.244 338.280 C 257.537 338.007,257.913 337.784,258.078 337.784 C 258.243 337.784,258.557 337.536,258.775 337.233 C 258.993 336.930,259.283 336.683,259.418 336.683 C 259.711 336.683,262.451 334.721,262.583 334.416 C 262.634 334.300,262.827 334.205,263.013 334.205 C 263.199 334.205,263.591 333.987,263.885 333.721 C 264.343 333.306,265.579 332.381,268.662 330.145 C 269.028 329.880,269.461 329.535,269.626 329.378 C 269.790 329.222,270.358 328.794,270.888 328.428 C 271.418 328.062,271.913 327.694,271.989 327.611 C 272.065 327.528,272.746 326.967,273.503 326.365 C 274.260 325.762,275.019 325.137,275.189 324.974 C 275.359 324.812,276.025 324.252,276.668 323.730 C 277.312 323.208,278.349 322.365,278.974 321.857 C 281.289 319.975,284.308 317.145,289.164 312.307 C 293.511 307.977,294.859 306.552,297.881 303.097 C 298.213 302.719,298.985 301.735,299.598 300.913 C 300.685 299.452,300.924 299.151,302.202 297.637 C 302.542 297.233,302.821 296.758,302.821 296.582 C 302.822 296.405,302.918 296.219,303.037 296.169 C 303.272 296.068,305.850 292.423,305.850 292.191 C 305.850 292.112,306.207 291.528,306.643 290.895 C 308.049 288.850,310.526 284.213,310.529 283.620 C 310.529 283.431,310.654 283.276,310.805 283.276 C 310.957 283.276,311.081 283.102,311.081 282.889 C 311.081 282.676,311.346 281.964,311.670 281.306 C 311.995 280.648,312.381 279.800,312.528 279.422 C 312.676 279.043,312.906 278.519,313.040 278.256 C 313.173 277.993,313.283 277.535,313.283 277.240 C 313.283 276.944,313.407 276.625,313.558 276.531 C 313.710 276.438,313.833 276.084,313.833 275.744 C 313.833 275.405,313.946 275.010,314.084 274.866 C 315.646 273.238,317.173 250.273,315.898 247.585 C 315.372 246.477,314.369 246.334,313.711 247.274 M315.305 250.860 C 316.992 272.535,309.446 290.118,289.889 310.079 C 270.524 329.845,238.011 351.448,204.496 366.818 L 199.907 368.922 195.136 366.823 C 188.422 363.869,172.176 355.763,165.313 351.944 C 119.682 326.548,93.371 300.810,86.534 274.880 C 86.015 272.911,85.447 270.805,85.272 270.200 C 84.810 268.602,84.822 255.872,85.286 254.807 C 85.732 253.785,85.992 254.094,86.427 256.160 C 92.644 285.727,135.771 322.448,195.182 348.761 C 200.534 351.132,199.100 351.296,207.433 347.356 C 251.321 326.604,287.603 299.362,303.959 274.880 C 309.318 266.858,314.659 254.047,314.659 249.215 C 314.659 247.598,315.148 248.843,315.305 250.860 " stroke="none" fill="#cecdde" fill-rule="evenodd"></path><path id="path4" d="M314.411 250.992 C 309.490 280.428,271.490 315.539,213.076 344.623 C 208.610 346.847,203.828 349.175,202.450 349.797 L 199.944 350.929 194.879 348.672 C 176.276 340.384,157.159 329.841,140.834 318.867 C 108.968 297.446,90.596 275.971,86.033 254.812 C 85.545 252.550,84.796 256.961,84.792 262.118 C 84.790 265.770,85.258 270.468,85.734 271.569 C 85.932 272.027,86.313 273.393,86.580 274.604 C 89.926 289.755,101.886 306.200,121.413 322.496 C 140.060 338.059,167.388 354.436,195.415 366.845 L 199.915 368.837 201.884 367.979 C 222.016 359.202,251.995 341.467,269.374 328.051 C 302.278 302.652,316.372 280.010,315.383 254.141 C 315.180 248.827,314.916 247.971,314.411 250.992 " stroke="none" fill="#147383" fill-rule="evenodd"></path></g></svg>