<svg xmlns="http://www.w3.org/2000/svg" width="330" height="177" viewBox="0 0 330 177" version="1.1"><path d="M 75.148 2.750 C 73.156 6.527, 49 64.013, 49 64.975 C 49 65.635, 55.062 66, 66 66 C 75.350 66, 83 66.185, 83 66.410 C 83 66.636, 78.792 76.648, 73.648 88.660 L 64.297 110.500 46.502 111 L 28.707 111.500 15.353 142.894 C 8.009 160.160, 2 174.675, 2 175.149 C 2 175.627, 40.622 175.897, 88.643 175.756 L 175.285 175.500 185.998 150 L 196.711 124.500 226.106 123.879 C 251.492 123.342, 256.634 122.967, 263.816 121.128 C 291.468 114.047, 307.281 99.398, 320.380 68.727 C 326.244 54.994, 328.398 45.807, 327.779 37.159 C 326.813 23.650, 319.644 13.564, 306.656 7.436 C 292.984 0.986, 293.266 1, 178.904 1 C 81.985 1, 76.017 1.101, 75.148 2.750 M 82.516 17.250 C 81.756 19.038, 77.989 27.925, 74.143 37 L 67.151 53.500 84.423 54 L 101.694 54.500 87.018 89 L 72.341 123.500 54.526 124 L 36.710 124.500 28.885 142.951 C 24.581 153.098, 20.836 161.986, 20.561 162.701 C 20.155 163.759, 33.647 164, 93.363 164 L 166.664 164 174.832 144.598 C 179.324 133.926, 183 124.926, 183 124.598 C 183 124.269, 175.350 124, 166 124 C 154.645 124, 149 123.646, 149 122.935 C 149 122.350, 149.941 119.683, 151.092 117.008 L 153.184 112.146 203.342 111.761 C 251.171 111.393, 253.871 111.274, 261.500 109.188 C 281.845 103.627, 294.411 93.573, 303.757 75.378 C 322.357 39.168, 318.588 21.260, 291.144 15.443 C 285.686 14.286, 266.588 14.032, 184.199 14.017 L 83.898 14 82.516 17.250 M 177.581 54.869 C 177.285 55.348, 175.500 59.398, 173.614 63.869 L 170.185 72 198.943 72 C 218.027 72, 228.845 71.612, 231.101 70.847 C 236.536 69.003, 239.672 66.309, 242.016 61.468 C 245.717 53.823, 246.479 54, 209.937 54 C 192.436 54, 177.876 54.391, 177.581 54.869" stroke="none" fill="#060606" fill-rule="evenodd"/><path d="M 82.516 17.250 C 81.756 19.038, 77.989 27.925, 74.143 37 L 67.151 53.500 84.423 54 L 101.694 54.500 87.018 89 L 72.341 123.500 54.526 124 L 36.710 124.500 28.885 142.951 C 24.581 153.098, 20.836 161.986, 20.561 162.701 C 20.155 163.759, 33.647 164, 93.363 164 L 166.664 164 174.832 144.598 C 179.324 133.926, 183 124.926, 183 124.598 C 183 124.269, 175.350 124, 166 124 C 154.645 124, 149 123.646, 149 122.935 C 149 122.350, 149.941 119.683, 151.092 117.008 L 153.184 112.146 203.342 111.761 C 251.171 111.393, 253.871 111.274, 261.500 109.188 C 281.845 103.627, 294.411 93.573, 303.757 75.378 C 322.357 39.168, 318.588 21.260, 291.144 15.443 C 285.686 14.286, 266.588 14.032, 184.199 14.017 L 83.898 14 82.516 17.250 M 177.581 54.869 C 177.285 55.348, 175.500 59.398, 173.614 63.869 L 170.185 72 198.943 72 C 218.027 72, 228.845 71.612, 231.101 70.847 C 236.536 69.003, 239.672 66.309, 242.016 61.468 C 245.717 53.823, 246.479 54, 209.937 54 C 192.436 54, 177.876 54.391, 177.581 54.869" stroke="none" fill="#c6b393" fill-rule="evenodd"/></svg>